<?xml version="1.0" encoding="utf-8"?>
<!-- Generator: Adobe Illustrator 16.0.0, SVG Export Plug-In . SVG Version: 6.00 Build 0)  -->
<!DOCTYPE svg PUBLIC "-//W3C//DTD SVG 1.1//EN" "http://www.w3.org/Graphics/SVG/1.1/DTD/svg11.dtd">
<svg version="1.1" id="Calque_1" xmlns="http://www.w3.org/2000/svg" xmlns:xlink="http://www.w3.org/1999/xlink" x="0px" y="0px"
	 width="109.5px" height="34px" viewBox="6.333 1.833 109.5 34" enable-background="new 6.333 1.833 109.5 34" xml:space="preserve"
	>
<title>logo</title>
<desc>Created with Sketch.</desc>
<g>
	<text transform="matrix(1 0 0 1 8.334 31.333)" fill="#4EC4DA" font-family="'GlacialIndifference-Regular'" font-size="40">enosis</text>
	<g>
		<linearGradient id="SVGID_1_" gradientUnits="userSpaceOnUse" x1="10.1338" y1="19.4951" x2="112.8027" y2="19.4951">
			<stop  offset="0" style="stop-color:#4EC4DA"/>
			<stop  offset="1" style="stop-color:#4EDA64"/>
		</linearGradient>
		<path fill="url(#SVGID_1_)" d="M28.531,23.614H13.053c0.27,1.511,1.003,2.751,2.2,3.72c1.218,0.986,2.578,1.479,4.079,1.479
			c1.013,0,1.98-0.233,2.899-0.7c0.92-0.467,1.687-1.113,2.3-1.939h3.2c-0.747,1.68-1.873,3.006-3.38,3.979
			c-1.506,0.974-3.039,1.46-4.599,1.46c-1.56,0-2.893-0.24-3.999-0.721c-1.106-0.479-2.08-1.133-2.92-1.959
			c-1.799-1.771-2.699-3.932-2.699-6.479c0-2.533,0.9-4.7,2.699-6.5c1.8-1.8,3.966-2.7,6.499-2.7c2.459,0,4.599,0.867,6.419,2.6
			c1.853,1.765,2.78,3.857,2.78,6.279V23.614z M23.312,17.495c-1.158-0.959-2.484-1.439-3.979-1.439c-2.28,0-4.08,1.033-5.399,3.1
			c-0.4,0.626-0.68,1.313-0.84,2.06h12.478C25.25,19.719,24.497,18.479,23.312,17.495z"/>
		<linearGradient id="SVGID_2_" gradientUnits="userSpaceOnUse" x1="10.1338" y1="19.4951" x2="112.8027" y2="19.4951">
			<stop  offset="0" style="stop-color:#4EC4DA"/>
			<stop  offset="1" style="stop-color:#4EDA64"/>
		</linearGradient>
		<path fill="url(#SVGID_2_)" d="M45.291,20.335c0-1.146-0.26-2.126-0.78-2.939c-0.52-0.813-1.379-1.22-2.58-1.22
			c-1.2,0-2.173,0.227-2.919,0.68s-1.353,1.046-1.82,1.78c-0.84,1.32-1.26,3.099-1.26,5.339v7.358h-2.799V13.736h2.799v3.024
			c0.586-0.985,1.333-1.787,2.24-2.404c0.96-0.653,2.066-0.98,3.319-0.98c1.253,0,2.267,0.18,3.04,0.54
			c0.773,0.36,1.427,0.853,1.96,1.479c1.066,1.253,1.6,2.9,1.6,4.939v10.998h-2.8V20.335z"/>
		<linearGradient id="SVGID_3_" gradientUnits="userSpaceOnUse" x1="10.1338" y1="19.4951" x2="112.8027" y2="19.4951">
			<stop  offset="0" style="stop-color:#4EC4DA"/>
			<stop  offset="1" style="stop-color:#4EDA64"/>
		</linearGradient>
		<path fill="url(#SVGID_3_)" d="M67.99,28.934c-1.814,1.786-3.981,2.68-6.499,2.68c-2.517,0-4.684-0.894-6.499-2.68
			c-1.799-1.771-2.699-3.932-2.699-6.479c0-2.533,0.9-4.7,2.699-6.5c1.8-1.8,3.966-2.7,6.499-2.7c2.533,0,4.7,0.9,6.499,2.7
			c1.801,1.8,2.699,3.966,2.699,6.5C70.689,25.002,69.791,27.162,67.99,28.934z M66.012,17.935c-1.253-1.253-2.76-1.879-4.52-1.879
			s-3.266,0.626-4.519,1.879c-1.253,1.253-1.88,2.76-1.88,4.52c0,1.732,0.626,3.226,1.88,4.479c1.253,1.254,2.759,1.88,4.519,1.88
			s3.267-0.626,4.52-1.88c1.252-1.253,1.879-2.746,1.879-4.479C67.891,20.695,67.264,19.188,66.012,17.935z"/>
		<linearGradient id="SVGID_4_" gradientUnits="userSpaceOnUse" x1="10.1338" y1="19.4951" x2="112.8027" y2="19.4951">
			<stop  offset="0" style="stop-color:#4EC4DA"/>
			<stop  offset="1" style="stop-color:#4EDA64"/>
		</linearGradient>
		<path fill="url(#SVGID_4_)" d="M80.76,29.533c2.562,0,3.844-0.958,3.844-2.873c0-1.117-0.916-1.974-2.75-2.57
			c-0.773-0.256-1.607-0.49-2.498-0.705c-0.893-0.213-1.73-0.5-2.514-0.861c-0.908-0.417-1.588-0.947-2.039-1.592
			c-0.451-0.643-0.678-1.401-0.678-2.274c0-1.749,0.615-3.072,1.844-3.97c1.232-0.901,2.699-1.352,4.398-1.352
			c1.697,0,3.115,0.352,4.256,1.054c1.123,0.692,1.873,1.927,2.25,3.705h-3c-0.297-0.981-0.752-1.633-1.365-1.955
			c-0.609-0.323-1.348-0.484-2.219-0.484s-1.619,0.189-2.244,0.568c-0.641,0.383-0.961,0.971-0.961,1.763
			c0,0.792,0.266,1.372,0.799,1.742c0.52,0.363,1.166,0.668,1.943,0.91c0.773,0.241,1.605,0.463,2.498,0.664
			c0.896,0.199,1.738,0.486,2.521,0.861c1.812,0.863,2.717,2.242,2.717,4.138c0,1.897-0.678,3.296-2.035,4.196
			c-0.682,0.453-1.436,0.791-2.264,1.018c-0.816,0.225-1.705,0.338-2.66,0.338c-4.08,0-6.424-1.813-7.031-5.439h2.961
			c0.297,1.141,0.801,1.945,1.51,2.412C78.746,29.298,79.652,29.533,80.76,29.533z"/>
		<linearGradient id="SVGID_5_" gradientUnits="userSpaceOnUse" x1="10.1338" y1="19.4951" x2="112.8027" y2="19.4951">
			<stop  offset="0" style="stop-color:#4EC4DA"/>
			<stop  offset="1" style="stop-color:#4EDA64"/>
		</linearGradient>
		<path fill="url(#SVGID_5_)" d="M94.932,8.917c0,0.493-0.174,0.913-0.52,1.26c-0.348,0.346-0.768,0.52-1.26,0.52
			c-0.494,0-0.914-0.173-1.26-0.52c-0.348-0.347-0.52-0.767-0.52-1.26c0-0.494,0.172-0.914,0.52-1.26
			c0.346-0.346,0.766-0.52,1.26-0.52c0.492,0,0.912,0.173,1.26,0.52C94.758,8.003,94.932,8.423,94.932,8.917z M91.771,31.333V13.736
			h2.801v17.597H91.771z"/>
		<linearGradient id="SVGID_6_" gradientUnits="userSpaceOnUse" x1="10.1338" y1="19.4951" x2="112.8027" y2="19.4951">
			<stop  offset="0" style="stop-color:#4EC4DA"/>
			<stop  offset="1" style="stop-color:#4EDA64"/>
		</linearGradient>
		<path fill="url(#SVGID_6_)" d="M106,29.533c2.562,0,3.844-0.958,3.844-2.873c0-1.117-0.918-1.974-2.752-2.57
			c-0.773-0.256-1.605-0.49-2.496-0.705c-0.893-0.213-1.73-0.5-2.516-0.861c-0.906-0.417-1.586-0.947-2.037-1.592
			c-0.453-0.643-0.678-1.401-0.678-2.274c0-1.749,0.613-3.072,1.842-3.97c1.234-0.901,2.699-1.352,4.4-1.352
			c1.695,0,3.115,0.352,4.254,1.054c1.125,0.692,1.875,1.927,2.252,3.705h-3c-0.299-0.981-0.754-1.633-1.367-1.955
			c-0.607-0.323-1.348-0.484-2.217-0.484c-0.871,0-1.621,0.189-2.246,0.568c-0.639,0.383-0.959,0.971-0.959,1.763
			c0,0.792,0.266,1.372,0.797,1.742c0.52,0.363,1.168,0.668,1.943,0.91c0.775,0.241,1.607,0.463,2.498,0.664
			c0.898,0.199,1.74,0.486,2.523,0.861c1.811,0.863,2.717,2.242,2.717,4.138c0,1.897-0.68,3.296-2.037,4.196
			c-0.682,0.453-1.436,0.791-2.262,1.018c-0.818,0.225-1.705,0.338-2.66,0.338c-4.082,0-6.426-1.813-7.031-5.439h2.961
			c0.297,1.141,0.799,1.945,1.508,2.412C103.986,29.298,104.893,29.533,106,29.533z"/>
	</g>
</g>
</svg>
