<?xml version="1.0" encoding="utf-8"?>
<!-- Generator: Adobe Illustrator 16.0.0, SVG Export Plug-In . SVG Version: 6.00 Build 0)  -->
<!DOCTYPE svg PUBLIC "-//W3C//DTD SVG 1.1//EN" "http://www.w3.org/Graphics/SVG/1.1/DTD/svg11.dtd">
<svg version="1.1" id="Calque_1" xmlns="http://www.w3.org/2000/svg" xmlns:xlink="http://www.w3.org/1999/xlink" x="0px" y="0px"
	 width="18px" height="31px" viewBox="0 0 18 31" enable-background="new 0 0 18 31" xml:space="preserve">
<title>mouse</title>
<desc>Created with Sketch.</desc>
<g id="Page-1">
	<g id="Artboard" transform="translate(-523.000000, -632.000000)">
		<g id="mouse" transform="translate(523.000000, 632.000000)">
			<path id="Shape" fill="#333333" d="M8.5,13h1v-3h-1V13z M8.5,6h1V0h-1V6z M12.5,6h-7C2.556,6,0,8.556,0,11.5v11
				C0,27.316,3.684,31,8.5,31h1c4.816,0,8.5-3.684,8.5-8.5v-11C18,8.556,15.443,6,12.5,6z M17,22.5c0,3.97-3.53,7.5-7.5,7.5h-1
				C4.243,30,1,26.758,1,22.5v-6h16V22.5z M17,15.5H1v-4C1,9.112,3.111,7,5.5,7h7c2.389,0,4.5,2.112,4.5,4.5V15.5z"/>
		</g>
	</g>
</g>
</svg>
