<?xml version="1.0" encoding="utf-8"?>
<!-- Generator: Adobe Illustrator 16.0.0, SVG Export Plug-In . SVG Version: 6.00 Build 0)  -->
<!DOCTYPE svg PUBLIC "-//W3C//DTD SVG 1.1//EN" "http://www.w3.org/Graphics/SVG/1.1/DTD/svg11.dtd">
<svg version="1.1" id="Calque_1" xmlns="http://www.w3.org/2000/svg" xmlns:xlink="http://www.w3.org/1999/xlink" x="0px" y="0px"
	 width="25px" height="22px" viewBox="0 0 25 22" enable-background="new 0 0 25 22" xml:space="preserve">
<title>twitter</title>
<desc>Created with Sketch.</desc>
<g id="Page-1_1_">
	<g id="Desktop-HD-Copy-5" transform="translate(-1265.000000, -2107.000000)">
		<g id="twitter" transform="translate(1265.000000, 2107.000000)">
			<g id="twitter_L_1_">
				<g id="Page-1">
					<g id="Artboard-1">
						<g id="line-icons">
							<g id="row-4-line-icons">
								<path id="twitter_L" fill="#4EC4DA" d="M5.364,5.375c3.876,1.978,7.152,1.863,7.152,1.863s-1.242-4.373,2.597-6.312
									c3.838-1.939,6.48,1.331,6.48,1.331s0.669-0.186,1.168-0.372c0.498-0.186,1.221-0.517,1.221-0.517l-1.184,2.133l1.822-0.195
									c0,0-0.225,0.332-0.953,1.007c-0.729,0.675-1.029,1.024-1.029,1.024s0.26,5.264-2.484,9.316s-6.29,6.484-11.441,6.996
									s-8.505-1.598-8.505-1.598s2.252-0.129,3.688-0.684s3.5-2.016,3.5-2.016s-2.936-0.912-3.989-1.939
									c-1.054-1.026-1.317-1.635-1.317-1.635l2.897-0.038c0,0-3.048-1.635-3.914-2.928C0.208,9.521,0.095,8.266,0.095,8.266
									l2.228,0.909c0,0-1.852-2.544-2.115-4.521c-0.264-1.977,0.338-3.042,0.338-3.042S1.487,3.398,5.364,5.375z"/>
							</g>
						</g>
					</g>
				</g>
			</g>
		</g>
	</g>
</g>
</svg>
