<svg xmlns="http://www.w3.org/2000/svg" version="1.1" width="600px" height="600px" xlink="http://www.w3.org/1999/xlink" style="overflow:hidden!important;"><g id="svga-group-wrapper" transform="scale(3 3)"><g id="svga-group-backs-single"></g><g id="svga-group-subwrapper" transform="matrix(0.84999948 0 0 0.84999948 15.00034496976562 16.512947869687494) translate(0 -2)"><g id="svga-group-hair-back" ><path id="SvgjsPath5778" d="M155.728 11.564H44.272C28.491 30.71 21.813 58.319 32.461 90.745c8.949 28.091 13.512 36.882 21.14 58.24 0 0 0.003-4.164-0.1-6.51 3.068 7.797 1.906 5.192 4.189 9.279 0.064-3.704-0.192-7.47-0.55-11.13 2.294 9.156 3.72 11.162 6.37 16.48 0.481-3.005 0.55-5.61 0.55-8.3 0.006 0.022 5.33 16.002 5.33 16.02 0.26 0.771 0.51 1.5 0.73 2.15 0.284-3.106 0.558-7.202 0.773-11.023 0.698 2.131 1.545 4.613 2.445 7.111 0.388 2.607 0.785 5.354 1.151 8.021 0.15-1.35 50.867-1.35 51.018 0 0.366-2.668 0.764-5.415 1.151-8.023 0.9-2.498 1.747-4.979 2.445-7.109 0.216 3.821 0.489 7.917 0.773 11.023 0.221-0.65 0.471-1.38 0.73-2.15 0-0.018 5.324-15.997 5.33-16.02 0 2.689 0.068 5.295 0.55 8.3 2.65-5.318 4.076-7.324 6.37-16.48 -0.357 3.66-0.614 7.426-0.55 11.13 2.283-4.087 1.121-1.482 4.189-9.279 -0.103 2.346-0.1 6.51-0.1 6.51 7.628-21.358 12.19-30.149 21.14-58.24C178.187 58.319 171.509 30.71 155.728 11.564z" fill="#1b141c" stroke-width="none" opacity="1" stroke="none"></path><path id="SvgjsPath5779" d="M155.731 11.562l1.149 5.18c13.415 18.712 18.158 44.437 8.958 73.864 -7.896 26.509-10.606 31.566-18.6 55.41 0.228-8.06-0.251-4.342 3.07-15.99 5.598-19.239 8.217-21.629 8.96-32.09 -1.767 11.506-7.022 17.952-10.37 31.68 -0.112 0.387-1.438 5.071-1.58 5.44 0 0.564-3.993 12.566-4.45 13.58 2.057-30.407 12.97-43.777 18.92-67.34 3.275-14.069 1.713-20.565-0.21-34.17 -0.978-6.889-2.307-14.719-5.38-17.19 3.303 3.303 4.087 11.762 4.66 17.22 0.404 3.898 2.475 15.697 0.93 26.87 -3.525 20.76-15.2 39.243-17.79 57.66 0 0 0.01 0.01 0 0.02 -2.935 11.237-3.169 13.813-7.04 23.021 -0.176-4.356-0.183-7.088 0.031-10.836 5.971-15.562 4.394-10.082 7.99-29.964 -0.22 0.598-3.94 11.747-7.424 22.354 0.236-2.84 0.535-6.295 0.902-10.704 0 0 0 0.01-0.01 0.03 -3.081 20.755-1.168 10.467-6.479 28.02 -1.796-14.726 2.294-35.978 2.71-39.279 -3.055 12.144-4.802 21.952-4.28 33.93 -0.307 0.995-0.52 1.694-0.678 2.22 -0.717-11.735-0.791-13.635-0.795-13.939 -0.376 17.315 0.313 1.76-2.906 25.071 -0.216 0.637-0.442 1.305-0.69 2.038 -0.74-5.766-1.127-13.335-1.421-16.189 -2.111-0.395-4.519-0.51-6.55-0.51 -9.976 0.257-3.828 0.929-17.36 1.256 -13.532-0.327-7.385-0.999-17.361-1.256 -2.031 0-4.438 0.115-6.55 0.51 -0.294 2.854-0.68 10.424-1.42 16.189 -0.249-0.733-0.475-1.401-0.69-2.038 -3.211-23.254-2.532-7.841-2.906-25.071 -0.004 0.305-0.079 2.204-0.795 13.94 -0.158-0.524-0.371-1.225-0.678-2.221 0.521-11.978-1.225-21.786-4.28-33.93 0.416 3.302 4.506 24.554 2.71 39.279 -5.323-17.587-3.395-7.268-6.479-28.02 -0.01-0.021-0.01-0.03-0.01-0.03 0.368 4.41 0.666 7.865 0.902 10.705 -3.483-10.606-7.204-21.757-7.424-22.354 3.596 19.873 2.02 14.401 7.991 29.965 0.214 3.747 0.207 6.479 0.031 10.835 -3.871-9.208-4.105-11.783-7.04-23.021 -0.01-0.01 0-0.02 0-0.02 -2.59-18.417-14.265-36.9-17.79-57.66 -1.545-11.173 0.525-22.972 0.93-26.87 0.573-5.458 1.357-13.917 4.66-17.22 -3.073 2.471-4.402 10.301-5.38 17.19 -1.923 13.605-3.485 20.101-0.21 34.17 5.95 23.563 16.863 36.933 18.92 67.34 -0.457-1.014-4.45-13.016-4.45-13.58 -0.143-0.369-1.468-5.054-1.58-5.44 -3.348-13.728-8.604-20.174-10.37-31.68 0.743 10.461 3.362 12.851 8.96 32.09 3.321 11.648 2.843 7.931 3.07 15.99 -7.993-23.844-10.703-28.901-18.6-55.41 -9.2-29.427-4.457-55.152 8.958-73.864l1.149-5.18C28.488 30.708 21.813 58.32 32.461 90.745c8.949 28.091 13.512 36.882 21.14 58.24 0 0 0.003-4.164-0.1-6.51 3.068 7.797 1.906 5.192 4.189 9.279 0.064-3.704-0.192-7.47-0.55-11.13 2.294 9.156 3.72 11.162 6.37 16.48 0.481-3.005 0.55-5.61 0.55-8.3 0.006 0.022 5.33 16.002 5.33 16.02 0.26 0.771 0.51 1.5 0.73 2.15 0.284-3.106 0.558-7.202 0.773-11.023 2.884 8.8 2.179 4.808 3.597 15.133 0.15-1.35 0.303-2.573 0.458-3.707 0.02 0.052 0.041 0.105 0.061 0.157 2.231-14.414 2.258-12.435 3.011-18.76 19.125 1.023 24.679 1.032 43.959 0 0.757 6.367 0.762 4.21 3.011 18.76 0.021-0.052 0.041-0.105 0.061-0.158 0.155 1.134 0.308 2.358 0.458 3.708 1.419-10.337 0.714-6.334 3.597-15.133 0.216 3.821 0.489 7.917 0.773 11.023 0.221-0.65 0.471-1.38 0.73-2.15 0-0.018 5.324-15.997 5.33-16.02 0 2.689 0.068 5.295 0.55 8.3 2.65-5.318 4.076-7.324 6.37-16.48 -0.357 3.66-0.614 7.426-0.55 11.13 2.283-4.087 1.121-1.482 4.189-9.279 -0.103 2.346-0.1 6.51-0.1 6.51 7.628-21.358 12.19-30.149 21.14-58.24C178.187 58.32 171.512 30.708 155.731 11.562zM69.491 163.165c-1.323-5.24-2.458-8.576-3.365-11.2 1.074 2.769 1.867 4.804 2.233 5.771 0.499-2.595 0.93-5.54 1.05-6.54 0.171 0.597 0.405 1.37 0.686 2.266C69.925 156.226 69.726 159.425 69.491 163.165zM71.052 153.015c0.061-1.21 0.115-2.355 0.159-3.379 0.122 0.597 0.601 3.492 1.213 7.415C71.652 154.783 71.276 153.685 71.052 153.015zM77.631 148.405c-0.097 0.384-0.678 3.295-1.321 6.632 0.183-2.979 0.253-5.581 0.209-7.292 1.364-0.173 5.699-0.332 12.026 0.629C85.419 148.395 81.815 148.405 77.631 148.405zM122.369 148.405c-4.185 0-7.789-0.011-10.915-0.031 5.565-0.845 10.097-0.874 12.026-0.629 -0.044 1.711 0.026 4.312 0.21 7.29C123.047 151.698 122.466 148.788 122.369 148.405zM127.576 157.051c0.611-3.924 1.091-6.818 1.213-7.415 0.044 1.023 0.098 2.168 0.159 3.379C128.724 153.684 128.348 154.783 127.576 157.051zM130.509 163.165c-0.234-3.74-0.434-6.939-0.604-9.704 0.28-0.896 0.515-1.669 0.686-2.266 0.119 1 0.551 3.945 1.05 6.54 0.366-0.967 1.159-3.004 2.234-5.776C132.968 154.584 131.833 157.921 130.509 163.165z" fill="#000000" stroke-width="none" opacity="1" stroke="none"></path></g><g id="svga-group-humanbody-single"><path id="SvgjsPath2893" d="M195.417 199.778c-2.196-4.746-8.195-11.779-14.86-13.722 -8.239-2.403-26.837-5.308-33.733-6.923 -5.528-1.296-16.662-11.294-20.564-14.65 -0.7-0.6-1.273-1.839-1.287-2.76 -0.139-10.864 4.195-39.724 4.195-39.724H100 70.833c0 0 4.334 28.859 4.193 39.724 -0.011 0.921-0.587 2.16-1.285 2.76 -3.902 3.356-15.036 13.354-20.564 14.65 -6.897 1.615-25.495 4.619-33.733 7.022 -6.667 1.942-12.664 8.876-14.86 13.622 -3.708 8.008-4.584 22.5-4.584 35h100 100C200 222.278 199.123 207.786 195.417 199.778z" fill="#4c2d18" stroke-width="none" opacity="1" stroke="none"></path><path id="SvgjsPath2894" d="M159.156 184.058c24.342 3.542 34.586 8.708 37.794 50.721H200c0-12.5-0.877-26.992-4.583-35 -2.196-4.746-8.195-11.779-14.86-13.722 -8.239-2.403-26.837-5.308-33.733-6.923 -5.528-1.296-18.242-12.069-21.643-16.35 3.36 4.704 12.791 15.605 21.054 18.46C150.188 182.61 153.48 183.232 159.156 184.058zM53.766 181.244c8.263-2.854 17.693-13.756 21.054-18.46 -3.4 4.28-16.114 15.054-21.643 16.35 -6.896 1.615-25.494 4.619-33.733 7.022 -6.665 1.942-12.664 8.876-14.86 13.622 -3.706 8.008-4.583 22.5-4.583 35h3.05c3.188-41.744 13.475-47.183 37.794-50.721C46.52 183.232 49.813 182.61 53.766 181.244z" fill="#5b3b26" stroke-width="none" opacity="1" stroke="none"></path><path id="SvgjsPath2895" d="M95.646 197.62c0 0-5.074-1.609-7.083-2.379 -10.449-4.009-44.395-6.607-44.395-6.607s35.754 1.419 43.644 2.779c-0.458-4.767-3.017-20.004-3.017-20.004s5.149 16.815 6.409 21.057C91.878 194.734 95.646 197.62 95.646 197.62zM106.445 196.278c-0.089 0.073-0.191 0.168-0.302 0.268C106.256 196.461 106.358 196.372 106.445 196.278zM95.646 197.62c0 0 2.893 2.992 4.347 3.03 1.91 0.051 4.828-2.899 6.151-4.104 -1.265 0.957-4.159 1.391-5.31 1.436C99.504 198.033 95.646 197.62 95.646 197.62zM116.664 190.101c-1.545 0.248-4.386 0.789-4.386 0.789l2.287-14.89c-0.646 3.071-4.474 16.211-8.12 20.278 1.91-1.616 6.158-2.391 8.324-2.704 10.236-1.484 10.232-1.483 41.062-4.94C155.831 188.634 126.76 188.479 116.664 190.101z" fill="#3d200d" stroke-width="none" opacity="1" stroke="none"></path><path id="SvgjsPath2896" d="M195.417 199.778c-2.196-4.746-8.195-11.779-14.86-13.722 -8.239-2.403-26.837-5.308-33.733-6.923 -5.528-1.296-16.662-11.294-20.564-14.65 -0.7-0.6-1.273-1.839-1.287-2.76 -0.139-10.864 4.195-39.724 4.195-39.724H100 70.833c0 0 4.334 28.859 4.193 39.724 -0.011 0.921-0.587 2.16-1.285 2.76 -3.902 3.356-15.036 13.354-20.564 14.65 -6.897 1.615-25.495 4.619-33.733 7.022 -6.667 1.942-12.664 8.876-14.86 13.622 -3.708 8.008-4.584 22.5-4.584 35h100 100C200 222.278 199.123 207.786 195.417 199.778z" fill="none" stroke="#1e0c00" stroke-width="1.5" opacity="1"></path></g><g id="svga-group-chinshadow-single"><path id="SvgjsPath6029" d="M124.272 162.248c-0.028-0.175-0.048-0.349-0.051-0.515 -0.094-7.38 1.819-22.721 3.098-32.078 -15.699-1.984-38.937-1.975-54.637 0.016 1.279 9.359 3.19 24.687 3.094 32.062 -0.001 0.119-0.014 0.243-0.03 0.367 3.825 3.586 7.667 6.528 11.055 8.151 5.312 2.546 21.035 2.427 26.401 0C116.613 168.71 120.456 165.812 124.272 162.248z" fill="url(#SvgjsLinearGradient6030)" opacity="1"></path></g><g id="svga-group-clothes-single" ><path id="SvgjsPath5939" d="M42.77 235.757l1.323-60.852c0 0 10.194-2.487 16.635-6.313 17.496 21.953 69.451 17.333 78.336-0.62 1.489 0.525 2.721 1.197 4.262 1.713 5 3.386 9.213 4.494 9.213 4.494l0.935 61.685C139.188 236.052 42.77 235.757 42.77 235.757z" fill="#f5f4f5" stroke-width="none" opacity="1"></path><path id="SvgjsPath5940" d="M154.014 177.705c-4.236-0.719-7.611-1.697-9.452-3.544 -5.343 10.025-26.763 16.378-33.855 17.309 20.554-6.276 29.188-10.813 32.598-21.583 1.99 2.383 6.522 3.549 12.313 4.538L154.014 177.705zM52.67 174.381c1.454-0.312 2.18-1.234 3.623-1.593l-1.528-1.867c-3.114 2.234-8.971 3.305-15.9 4.424l0.188 3.738c3.956-0.79 7.817-1.788 11.429-3.323 7.483 8.485 19.168 12.659 31.06 14.387C66.624 186.562 58.07 180.511 52.67 174.381z" fill="#ffffff" stroke-width="none" opacity="1"></path><path id="SvgjsPath5941" d="M137.861 170.055c-5.929 11.361-50.74 24.595-76.009 0.866 -1.571 0.615-6.271 2.085-6.271 2.085 18.406 23.08 72.345 23.227 86.702-0.112C142.221 172.87 139.321 170.737 137.861 170.055z" fill="#dfdde2" stroke-width="none" opacity="1"></path><path id="SvgjsPath5942" d="M139.008 167.841c-10.087 18.575-62.578 21.204-78.239 0.625 -5.72 1.556-11.219 4.876-16.756 5.707l-1.243 61.584 110.703 0.107 -0.855-62.386c-3.369-0.707-6.501-2.737-9.254-3.894C141.842 168.945 140.55 168.37 139.008 167.841zM60.39 169.087c13.903 23.086 68.817 18.455 79.419 0.099 1.286 0.499 1.615 0.696 3.106 1.183 -10.982 21.208-65.306 27.967-87.525 1.147C55.546 171.476 58.823 169.629 60.39 169.087zM54.287 172.418c17.963 27.046 77.26 22.856 89.583-1.287 1.771 1.391 4.53 2.989 7.936 3.735l1.66 59.08 -110.377 0.016 1.904-58.299C47.777 174.264 52.247 173.232 54.287 172.418z" fill="#b8b6c9" stroke-width="none" opacity="1"></path><path id="SvgjsPath5943" d="M-4.529 235.566c-2.574-13.852-2.292-47.592 9.013-47.521 13.136-5.311 29.269-11.404 42.802-15.311 6.908-7.246 13.436-14.137 26.188-21.314 0.389 2.599 1.874 8.541 0.011 11.773 -1.355 2.352-5.783 5.576-9.554 8.368 -2.029 2.72-3.927 5.374-6.599 9.089 5.168 22.301 9.601 33.78 10.097 53.123 0 0-1.452 0.689 64.471 0.397 2.215-22.339 4.993-33.561 10.379-54.098 0 0-4.308-5.014-7.207-8.87 -2.054-1.997-8.36-7.532-8.84-8.651 -1.175-2.741-0.548-6.188 0.11-11.367 10.793 4.873 17 12.021 26.082 21.303 7.729 2.119 30.86 9.967 42.445 15.216 3.965-0.11 6.203 1.999 7.872 5.466 5.405 11.195 4.126 27.297 2.18 42.789C185.83 235.989 49.887 238.17-4.529 235.566z" fill="#386e77" stroke-width="none" opacity="1"></path><path id="SvgjsPath5944" d="M73.875 154.081c0.16 1.07 0.304 2.085 0.411 3.041 -0.218 0.266-17.212 23.353-17.336 23.525C61.126 171.148 67.1 161.305 73.875 154.081zM126.053 154.081c-0.159 1.07-0.184 2.085-0.291 3.041 0.218 0.266 16.931 22.469 17.054 22.642C138.391 170.914 132.828 161.305 126.053 154.081zM165.008 185.154c-4.28 6.231-5.194 8.382-9.879 14.557 1.071 0 2.799 0.166 3.87 0.166C162.663 193.592 162.67 190.393 165.008 185.154zM169.394 230.379c3.793-8.9 6.934-16.711 10.739-25.624l-1.247-2.014C175.717 211.896 172.354 221.199 169.394 230.379zM41.048 199.877c1.071 0 2.799-0.166 3.871-0.166 -4.685-6.175-5.599-6.561-9.878-12.792C37.377 192.158 37.384 193.592 41.048 199.877zM21.161 202.741l-1.247 2.014c3.806 8.913 4.765 16.724 8.559 25.624C25.512 221.199 24.33 211.896 21.161 202.741z" fill="#265e68" stroke-width="none" opacity="1"></path><path id="SvgjsPath5945" d="M65.638 169.283c1.181-1.646 5.237-7.272 8.601-12.561C75.227 162.179 73.413 165.416 65.638 169.283zM125.74 156.36c2.553 4.396 5.562 8.772 8.664 12.803C126 165.336 125.435 161.423 125.74 156.36z" fill="#184f58" stroke-width="none" opacity="1"></path><path id="SvgjsPath5946" d="M126.318 151.359c0.008-0.061 0.017-0.118 0.023-0.174 18.093 9.999 28.576 25.02 40.747 36.217 -0.448 0.721-1.228 1.193-1.687 1.905C152.656 179.609 146.599 164.946 126.318 151.359zM71.736 152.022c-15.034 8.213-36.242 33.357-38.318 35.269 0.448 0.724 0.691 0.577 1.15 1.288C47.314 178.882 50.793 169.283 71.736 152.022zM194.869 187.704c-1-0.799-24.646-10.039-42.59-14.969 33.698 16.299 45.587 18.545 51.471 24.321C203.367 196.057 202.586 187.489 194.869 187.704zM47.458 172.555c-13.524 3.914-30.839 10.098-42.975 15.491 -5.364 0.106-9.208 7.93-10.031 16.084C1.914 187.317-1.773 198.62 47.458 172.555z" fill="#4d7e86" stroke-width="none" opacity="1"></path><path id="SvgjsPath5947" d="M206.6 210.062c-0.34-8.635-3.055-23.103-11.691-22.46 -0.714-0.61-20.822-9.767-42.285-15.611 -7.353-7.455-16.515-17.598-26.371-20.957 -0.711 6.428-1.477 10.622 0.216 12.714 2.241 2.439 4.93 4.879 7.568 6.522 4.616 6.136 8.139 9.778 8.139 9.778 -5.43 20.703-8.815 31.314-10.973 53.688H68.798c-2.157-22.373-5.543-32.984-10.973-53.688 0 0 3.522-3.643 8.139-9.778 2.639-1.644 5.327-4.083 7.568-6.522 1.692-2.092 0.927-6.286 0.216-12.714 -9.856 3.359-19.019 13.502-26.371 20.957 -21.463 5.845-41.571 15.001-42.285 15.611 -8.637-0.643-11.352 13.825-11.691 22.46 -0.411 10.487 1.435 24.938 1.585 25.938h210.029C205.165 234.999 207.011 220.549 206.6 210.062zM72.984 163.194c-2.258 2.233-3.658 3.181-6.473 5.282 4.829-6.271 4.341-5.433 7.708-11.229C74.37 159.739 73.433 162.751 72.984 163.194zM-3.172 234.028c-1.082-12.844-2.916-24.41 0.43-36.992 1.281-4.827 2.484-8.095 7.455-8.509 1.067 5.538 8.132 28.724 14.298 44.533 -6.226-24.192-5.311-18.81-8.219-28.452 -0.964-3.235-1.854-6.486-2.979-9.672 -0.783-2.214-1.65-4.387-2.262-6.653l40.433-14.865c-0.279 0.283-12.895 13.434-13.199 13.804 1.847 3.021 7.816 7.222 10.845 11.758 -12.436 1.174-18.508 3.173-23 3.84 0.331 0.919 9.061 25.353 9.976 27.656 -1.479-7.917-4.816-20.297-8.637-27.211 1.41-0.179 18.077-2.492 23.393-3.477 -1.476-2.854-8.043-8.437-11.559-12.619 20.646-18.162 25.422-27.402 39.593-35.454 0.15 1.509 0.443 3.011 0.55 4.519 -15.795 23.533-17.649 23.567-17.649 23.567 4.585 17.81 10.532 35.824 10.532 54.073L-3.172 234.028zM127.016 163.194c-0.448-0.443-1.386-3.455-1.235-5.947 3.367 5.797 2.879 4.958 7.708 11.229C130.674 166.375 129.273 165.428 127.016 163.194zM203.172 234.028l-70-0.154c0-18.249 5.947-36.264 10.532-54.073 0 0-1.854-0.034-17.649-23.567 0.106-1.508 0.399-3.01 0.55-4.519 14.171 8.052 18.946 17.292 39.593 35.454 -3.516 4.183-10.083 9.766-11.559 12.619 5.315 0.984 21.982 3.298 23.393 3.477 -3.82 6.914-7.157 19.294-8.637 27.211 0.915-2.304 9.645-26.737 9.976-27.656 -4.492-0.667-10.564-2.666-23-3.84 3.028-4.536 8.998-8.736 10.845-11.758 -0.305-0.37-12.92-13.521-13.199-13.804 0.001 0 40.433 14.865 40.433 14.865 -0.611 2.267-1.479 4.439-2.262 6.653 -1.125 3.186-2.015 6.437-2.979 9.672 -2.908 9.643-1.993 4.26-8.219 28.452 6.166-15.81 13.23-38.995 14.298-44.533 4.971 0.414 6.174 3.682 7.455 8.509C206.088 209.618 204.254 221.185 203.172 234.028z" fill="#0c4049" stroke-width="none" opacity="1"></path></g><g id="svga-group-head" ><g id="svga-group-ears-left" ><path id="SvgjsPath6043" d="M45.671 84.344c-1.485-2.462-6.327-9.199-10.031-8.254 -3.012 0.772-2.973 4.971-3.206 7.455 -0.34 3.644-0.464 9.992 0.525 12.568 0.951 2.473 3.96 7.252 5.828 9.075 2.299 2.235 5.97 9.358 6.422 10.097 0.711 1.168 2.137 2.84 4.325 2.708 3.071-0.185 5.724-3.087 5.965-4.485C56.8 105.918 49.536 90.75 45.671 84.344z" fill="#4c2d18" stroke="#1e0c00" stroke-width="1.5" opacity="1"></path><path id="SvgjsPath6044" d="M44.2 99.341c-0.143-0.563 0.007-1.513 0.154-2.429 0.133-0.835 0.258-1.624 0.182-2.182 -0.289-2.09-1.915-6.06-2.976-8.212 -1.223-2.476-3.199-5.595-5.679-6.399 -1.024-0.333-1.699 0.065-2.089 0.468 -0.288 0.296-0.353 0.645-0.259 0.687 0.095 0.041 0.307-0.248 0.617-0.519 0.254-0.222-0.508-0.04 0 0 -0.205 1.04-0.865 6.302-0.41 10.143 0.358 3.022 1.05 5.279 1.263 5.617 0.031 0.356 0.083 0.705 0.16 1.043 1.002 4.41 7.518 10.177 9.034 11.82 0.28 0.303 0.574 0.483 0.646 0.409s-0.101-0.373-0.379-0.678c-1.498-1.632-7.971-7.381-8.939-11.635 -1.027-4.514 3.912-11.207 4.699-12.623 0.401 0.665 0.742 1.303 1.004 1.835 0.207 0.417 0.434 0.906 0.67 1.435 -0.463 0.738-5.118 6.127-3.934 10.441 0.438 1.591 3.822 3.642 5.131 4.203 0.72 0.31 0.99 0.772 1.304 1.306 0.364 0.624 0.033 2.229 1.23 2.739 0.244 0.104 0.464 0.146 0.659 0.146 0.338 0 0.594-0.13 0.783-0.284 0.02 0.271 0.019 0.619 0.009 0.941 -0.012 0.418 0.047 0.609 0.148 0.617 0.103 0.009 0.21-0.174 0.223-0.587 0.017-0.51 0.014-1.141-0.077-1.444 -0.269-0.889-1.088-1.894-1.957-2.957C44.563 102.197 44.422 100.213 44.2 99.341zM34.969 95.432c-2.348-6.923 1.283-13.229 1.81-14.179 1.012 0.399 2.562 2.193 3.221 3.235C39.52 85.321 35.067 90.775 34.969 95.432zM45.772 106.464c-1.084-0.462-0.706-1.984-1.056-2.584 -0.318-0.542-0.646-1.102-1.479-1.46 -0.18-0.078-0.379-0.196-0.583-0.332 -2.682-6.075 0.293-8.73 1.039-9.273 0.229 0.742 0.399 1.423 0.476 1.97 0.068 0.5-0.059 1.298-0.181 2.068 -0.153 0.955-0.31 1.944-0.147 2.584 0.244 0.953 0.411 2.97 1.291 4.048 0.781 0.956 1.583 1.942 1.857 2.746C46.871 106.391 46.5 106.775 45.772 106.464z" fill="#1e0c00" stroke-width="none" opacity="1"></path></g><g id="svga-group-ears-right" ><path id="SvgjsPath6045" d="M154.066 84.344c1.486-2.462 6.328-9.199 10.031-8.254 3.012 0.772 2.973 4.971 3.207 7.455 0.34 3.644 0.463 9.992-0.525 12.568 -0.951 2.473-3.961 7.252-5.828 9.075 -2.299 2.235-5.971 9.358-6.422 10.097 -0.711 1.168-2.137 2.84-4.326 2.708 -3.07-0.185-5.723-3.087-5.965-4.485C142.938 105.918 150.203 90.75 154.066 84.344z" fill="#4c2d18" stroke="#1e0c00" stroke-width="1.5" opacity="1"></path><path id="SvgjsPath6046" d="M154.322 103.243c-0.869 1.063-1.688 2.068-1.957 2.957 -0.092 0.304-0.094 0.935-0.078 1.444 0.014 0.413 0.121 0.596 0.225 0.587 0.102-0.008 0.16-0.199 0.148-0.617 -0.01-0.322-0.012-0.67 0.008-0.941 0.189 0.154 0.445 0.284 0.783 0.284 0.195 0 0.416-0.042 0.66-0.146 1.195-0.511 0.865-2.116 1.229-2.739 0.314-0.534 0.584-0.997 1.305-1.306 1.309-0.561 4.693-2.611 5.131-4.203 1.184-4.314-3.471-9.704-3.934-10.441 0.234-0.529 0.463-1.018 0.668-1.435 0.264-0.532 0.604-1.171 1.006-1.835 0.787 1.416 5.725 8.108 4.699 12.623 -0.969 4.254-7.441 10.003-8.939 11.635 -0.279 0.305-0.453 0.604-0.381 0.678 0.074 0.074 0.367-0.106 0.646-0.409 1.516-1.643 8.031-7.41 9.033-11.82 0.078-0.338 0.131-0.687 0.162-1.043 0.211-0.337 0.904-2.594 1.262-5.617 0.455-3.841-0.205-9.103-0.41-10.143 0.508-0.04-0.254-0.222 0 0 0.311 0.271 0.523 0.56 0.617 0.519 0.094-0.042 0.029-0.39-0.258-0.687 -0.391-0.403-1.066-0.801-2.09-0.468 -2.48 0.804-4.457 3.923-5.68 6.399 -1.061 2.152-2.686 6.122-2.975 8.212 -0.076 0.558 0.049 1.347 0.182 2.182 0.146 0.916 0.297 1.866 0.154 2.429C155.316 100.213 155.176 102.197 154.322 103.243zM159.738 84.488c0.66-1.042 2.209-2.835 3.221-3.235 0.527 0.95 4.158 7.256 1.811 14.179C164.672 90.775 160.219 85.321 159.738 84.488zM152.75 106.229c0.273-0.804 1.076-1.79 1.857-2.746 0.879-1.078 1.047-3.095 1.291-4.048 0.162-0.64 0.006-1.629-0.146-2.584 -0.123-0.77-0.25-1.568-0.182-2.068 0.076-0.547 0.246-1.228 0.475-1.97 0.746 0.543 3.721 3.199 1.039 9.273 -0.203 0.136-0.402 0.254-0.584 0.332 -0.832 0.358-1.16 0.918-1.479 1.46 -0.35 0.6 0.029 2.123-1.055 2.584C153.238 106.775 152.867 106.391 152.75 106.229z" fill="#1e0c00" stroke-width="none" opacity="1"></path></g><g id="svga-group-faceshape-wrap" ><g id="svga-group-faceshape-single" ><path id="SvgjsPath6026" d="M144.004 126.997c-5.003 10.225-20.047 28.437-30.801 33.266 -5.366 2.412-21.089 2.53-26.401 0 -10.646-5.067-25.765-23.057-30.801-33.266C50.388 115.623 41.15 78.444 41.138 78.39c-1.3-4.988-1.996-10.225-2.004-15.623 -0.052-34 27.154-61.598 60.772-61.65 33.621-0.053 60.913 27.457 60.963 61.456 0.009 5.4-0.669 10.638-1.952 15.631C158.901 78.256 149.6 115.559 144.004 126.997z" fill="#4c2d18" stroke-width="none" opacity="1"></path><path id="SvgjsPath6027" d="M110.152 1.982c26.994 6.338 47.097 30.814 47.052 60.039 -0.009 5.399-0.704 10.635-2.004 15.624 -0.012 0.054-8.61 37.245-14.13 48.608 -4.859 10.004-19.7 27.468-30.067 32.521 -2.163 1.055-8.694 1.555-11.001 1.555 -2.307 0-8.837-0.5-11-1.555 -10.367-5.053-25.209-22.517-30.067-32.521 -5.521-11.363-14.119-48.554-14.13-48.608 -1.3-4.988-1.996-10.225-2.004-15.624C42.756 32.796 62.857 8.32 89.853 1.982 61.03 6.877 39.087 32.232 39.134 62.767c0.008 5.398 0.704 10.635 2.004 15.623 0.012 0.054 9.232 37.241 14.863 48.607 5.052 10.199 20.207 28.085 30.801 33.266 2.658 1.301 9.305 1.855 12.954 1.853 3.646 0.003 10.791-0.552 13.447-1.853 10.594-5.182 25.748-23.066 30.801-33.266 5.631-11.366 14.852-48.553 14.862-48.607 1.3-4.988 1.996-10.225 2.004-15.623C160.918 32.232 138.975 6.877 110.152 1.982z" fill="#442612" stroke-width="none" opacity="1"></path><path id="SvgjsPath6028" d="M144.004 126.997c-5.003 10.225-20.047 28.437-30.801 33.266 -5.366 2.412-21.089 2.53-26.401 0 -10.646-5.067-25.765-23.057-30.801-33.266C50.388 115.623 41.15 78.444 41.138 78.39c-1.3-4.988-1.996-10.225-2.004-15.623 -0.052-34 27.154-61.598 60.772-61.65 33.621-0.053 60.913 27.457 60.963 61.456 0.009 5.4-0.669 10.638-1.952 15.631C158.901 78.256 149.6 115.559 144.004 126.997z" fill="none" stroke="#1e0c00" stroke-width="1.5" opacity="1"></path></g></g><g id="svga-group-mouth-single" ><path id="SvgjsPath6066" d="M99.983 141.177c-3.24 0-4.753-3.8-4.753-3.8s4.826 0.199 9.279 0.933C104.509 138.31 102.832 141.177 99.983 141.177z" fill="url(#SvgjsLinearGradient6067)" opacity="1"></path><path id="SvgjsPath6070" d="M87.792 135.571c-0.373-0.33 1.528-3.373 3.926-4.045 3.031-0.882 5.759 0.026 7.991 0.413 2.034 0.354 5.041 0.049 7.028 0.579 2.249 0.6 8.464 3.283 7.981 3.8 -0.238 0.255-4.963-1.676-8.076-2.278 -1.98-0.384-4.881-0.086-6.874-0.413 -2.062-0.337-4.47-1.21-7.268-0.805C89.962 133.189 88.217 135.947 87.792 135.571z" fill="#1e0c00" stroke-width="none" opacity="1"></path></g><g id="svga-group-eyes-left" ><g id="svga-group-eyesback-left"><path id="SvgjsPath5952" d="M61.752 82.523c-0.506-2.285 5.191-3.973 12.711-3.051 7.518 0.923 12.738 5.524 12.052 7.844 -0.38 1.286-10.639 3.245-14.253 2.847C68.598 89.758 62.974 88.04 61.752 82.523z" fill="url(#SvgjsRadialGradient5953)" opacity="1"></path></g><g id="svga-group-eyesiriswrapper-left" transform="translate(0.25 0.25)"><g id="svga-group-eyesiriscontrol-left" ><g id="svga-group-eyesiris-left" ><path id="SvgjsPath6006" d="M81.235 86.526c-1.086 5.079-5.203 8.071-9.202 6.676 -3.996-1.394-6.356-6.647-5.269-11.727 1.085-5.083 5.211-8.075 9.208-6.679C79.965 76.189 82.322 81.442 81.235 86.526z" fill="#4e60a3" stroke="#152975" stroke-width="0.5" opacity="1"></path><path id="SvgjsPath6007" d="M81.056 84.591c-0.553 5.639-3.844 8.577-7.441 8.271 -3.323-0.285-6.293-3.404-6.57-8.791 1.15-0.42 2.676 0.263 4.014 0.002 -0.003 0.062-0.02 0.117-0.021 0.18 -0.109 2.068 1.195 3.87 2.908 4.017 1.72 0.146 3.197-1.419 3.303-3.486 0.012-0.269-0.001-0.534-0.033-0.789C78.409 84.225 79.869 83.999 81.056 84.591z" fill="#6777b2" stroke-width="none" opacity="1"></path><path id="SvgjsPath6008" d="M75.084 80.814c-1.65-0.6-3.334 0.599-3.76 2.69 -0.426 2.081 0.567 4.26 2.217 4.861 1.65 0.603 3.333-0.598 3.764-2.68C77.733 83.595 76.737 81.417 75.084 80.814z" fill="#000000" stroke-width="none" opacity="0.9"></path><path id="SvgjsPath6009" d="M75.084 80.814c-1.65-0.6-3.334 0.599-3.76 2.69 -0.426 2.081 0.567 4.26 2.217 4.861 1.65 0.603 3.333-0.598 3.764-2.68C77.733 83.595 76.737 81.417 75.084 80.814z" fill="none" stroke="#152975" stroke-width="0.75" opacity="1"></path><path id="SvgjsPath6010" d="M70.451 89.818c-0.157 0.695-1.008 0.399-0.854-0.298 0.153-0.673 0.562-1.086 0.818-1.679 0.276-0.633 1.039-0.067 0.762 0.567C70.965 88.897 70.572 89.273 70.451 89.818L70.451 89.818zM71.807 88.71c-0.234 0.348-0.542 1.638-0.675 2.06 -0.211 0.672 0.642 0.961 0.851 0.298 0.073-0.229 0.32-1.373 0.45-1.563C72.799 88.958 72.18 88.16 71.807 88.71L71.807 88.71zM73.646 92.031c0.459-0.676 0.413-1.45 0.403-2.292 -0.007-0.723-0.888-0.724-0.882 0 0.007 0.465 0.115 1.114-0.146 1.498C72.65 91.781 73.271 92.579 73.646 92.031L73.646 92.031zM74.545 89.599c0.009 0.697 0.074 1.377 0.236 2.044 0.169 0.69 1.021 0.396 0.854-0.298 -0.142-0.576-0.2-1.144-0.205-1.746C75.421 88.875 74.54 88.875 74.545 89.599L74.545 89.599z" fill="#ffffff" stroke-width="none" opacity="0.5"></path><path id="SvgjsPath6011" d="M79.246 82.364c-0.868 0.663-2.174 0.066-2.916-1.334 -0.738-1.402-0.63-3.077 0.242-3.738 0.868-0.667 2.175-0.068 2.91 1.333C80.225 80.027 80.118 81.7 79.246 82.364z" fill="#ffffff" stroke-width="none" opacity="0.8"></path></g></g></g><g id="svga-group-eyesfront-left"><path id="SvgjsPath5974" d="M53.294 83c0.809 10.899 11.637 23.583 20.506 22.236 10.498 0.106 20.864-7.868 20.864-22.305s-5.087-26.528-21.127-26.528C62.037 56.402 53.294 68.563 53.294 83zM61.752 82.523c-0.506-2.285 5.191-3.973 12.711-3.051 7.518 0.923 12.738 5.524 12.052 7.844 -0.38 1.286-10.639 3.245-14.253 2.847C68.598 89.758 62.974 88.04 61.752 82.523z" fill="#4c2d18" stroke-width="none" opacity="1"></path><path id="SvgjsPath5975" d="M72.262 90.163c3.614 0.398 13.873-1.561 14.253-2.847 0.687-2.32-4.534-6.921-12.052-7.844C68.003 78.68 62.9 79.816 61.907 81.6c0.898-6.4 7.7-11.397 15.987-11.434 8.911-0.037 16.148 5.676 16.172 12.765 0.021 7.088-7.185 12.862-16.095 12.902 -8.913 0.037-16.149-5.676-16.173-12.764 0-0.105 0.016-0.208 0.019-0.313C63.147 88.083 68.651 89.764 72.262 90.163z" fill="url(#SvgjsRadialGradient5976)" opacity="1"></path><path id="SvgjsPath5980" d="M61.752 82.523c-0.506-2.285 5.191-3.973 12.711-3.051 7.518 0.923 12.738 5.524 12.052 7.844 -0.38 1.286-10.639 3.245-14.253 2.847C68.598 89.758 62.974 88.04 61.752 82.523z" fill="url(#SvgjsRadialGradient5981)" opacity="1"></path><path id="SvgjsPath5984" d="M62.148 77.417c4.208-1.978 9.35-2.16 13.838-1.005 2.404 0.561 4.965 1.285 7.063 2.638 1.945 1.135 3.525 2.5 5.002 4.19 -1.342-1.701-2.773-3.118-4.623-4.27 -2.276-1.416-4.769-2.294-7.364-2.916C71.478 74.928 66.342 75.184 62.148 77.417z" fill="#1e0c00" stroke-width="none" opacity="1"></path><path id="SvgjsPath5985" d="M62.769 78.02c0.88-0.352 4.065-1 5.456-1.066 1.687-0.082 5.073 0.125 6.735 0.424 3.374 0.608 9.251 2.483 11.678 7.184 0.746 1.445 0.074 2.456-0.123 2.675 0.3-2.426-4.838-6.746-12.052-7.604 -7.52-0.894-13.217 0.743-12.711 2.958 1.222 5.348 6.846 7.013 10.51 7.405 4.099 0.439 11.684-1.539 12.686-1.753 -1.999 1.009-7.524 2.095-9.767 2.303 -0.744 0.07-2.24 0.104-2.986 0.085 -5.949-0.158-10.169-3.175-11.729-7.26C59.464 80.745 60.56 78.902 62.769 78.02z" fill="#000000" stroke-width="none" opacity="1"></path></g></g><g id="svga-group-eyes-right" ><g id="svga-group-eyesback-right"><path id="SvgjsPath5959" d="M137.849 82.523c0.506-2.285-5.191-3.973-12.711-3.051 -7.518 0.923-12.738 5.524-12.052 7.844 0.38 1.286 10.639 3.245 14.253 2.847C131.003 89.758 136.627 88.04 137.849 82.523z" fill="url(#SvgjsRadialGradient5960)" opacity="1"></path></g><g id="svga-group-eyesiriswrapper-right" transform="translate(-0.25 0.25)"><g id="svga-group-eyesiriscontrol-right" ><g id="svga-group-eyesiris-right" ><path id="SvgjsPath6012" d="M133.235 86.526c-1.086 5.079-5.202 8.071-9.201 6.676 -3.997-1.394-6.356-6.647-5.27-11.727 1.086-5.083 5.212-8.075 9.208-6.679C131.965 76.189 134.322 81.442 133.235 86.526z" fill="#4e60a3" stroke="#152975" stroke-width="0.5" opacity="1"></path><path id="SvgjsPath6013" d="M133.056 84.591c-0.553 5.639-3.844 8.577-7.44 8.271 -3.322-0.285-6.294-3.404-6.57-8.791 1.151-0.42 2.677 0.263 4.014 0.002 -0.003 0.062-0.019 0.117-0.021 0.18 -0.108 2.068 1.195 3.87 2.909 4.017 1.72 0.146 3.197-1.419 3.302-3.486 0.013-0.269-0.001-0.534-0.032-0.789C130.409 84.225 131.869 83.999 133.056 84.591z" fill="#6777b2" stroke-width="none" opacity="1"></path><path id="SvgjsPath6014" d="M127.084 80.814c-1.65-0.6-3.335 0.599-3.76 2.69 -0.427 2.081 0.567 4.26 2.217 4.861 1.65 0.603 3.334-0.598 3.765-2.68C129.733 83.595 128.736 81.417 127.084 80.814z" fill="#000000" stroke-width="none" opacity="0.9"></path><path id="SvgjsPath6015" d="M127.084 80.814c-1.65-0.6-3.335 0.599-3.76 2.69 -0.427 2.081 0.567 4.26 2.217 4.861 1.65 0.603 3.334-0.598 3.765-2.68C129.733 83.595 128.736 81.417 127.084 80.814z" fill="none" stroke="#152975" stroke-width="0.75" opacity="1"></path><path id="SvgjsPath6016" d="M122.451 89.818c-0.157 0.695-1.008 0.399-0.854-0.298 0.153-0.673 0.562-1.086 0.817-1.679 0.276-0.633 1.039-0.067 0.762 0.567C122.965 88.897 122.571 89.273 122.451 89.818L122.451 89.818zM123.807 88.71c-0.234 0.348-0.542 1.638-0.675 2.06 -0.211 0.672 0.642 0.961 0.851 0.298 0.072-0.229 0.32-1.373 0.449-1.563C124.8 88.958 124.18 88.16 123.807 88.71L123.807 88.71zM125.646 92.031c0.46-0.676 0.414-1.45 0.403-2.292 -0.007-0.723-0.889-0.724-0.882 0 0.008 0.465 0.115 1.114-0.146 1.498C124.65 91.781 125.271 92.579 125.646 92.031L125.646 92.031zM126.545 89.599c0.009 0.697 0.074 1.377 0.236 2.044 0.17 0.69 1.021 0.396 0.854-0.298 -0.143-0.576-0.201-1.144-0.205-1.746C127.422 88.875 126.54 88.875 126.545 89.599L126.545 89.599z" fill="#ffffff" stroke-width="none" opacity="0.5"></path><path id="SvgjsPath6017" d="M131.246 82.364c-0.868 0.663-2.174 0.066-2.916-1.334 -0.738-1.402-0.63-3.077 0.243-3.738 0.867-0.667 2.174-0.068 2.909 1.333C132.225 80.027 132.118 81.7 131.246 82.364z" fill="#ffffff" stroke-width="none" opacity="0.8"></path></g></g></g><g id="svga-group-eyesfront-right"><path id="SvgjsPath5994" d="M126.063 56.402c-16.04 0-21.127 12.091-21.127 26.528s10.366 22.412 20.864 22.305c8.869 1.347 19.697-11.337 20.506-22.236C146.307 68.563 137.563 56.402 126.063 56.402zM127.339 90.163c-3.614 0.398-13.873-1.561-14.253-2.847 -0.687-2.32 4.534-6.921 12.052-7.844 7.52-0.922 13.217 0.767 12.711 3.051C136.627 88.04 131.003 89.758 127.339 90.163z" fill="#4c2d18" stroke-width="none" opacity="1"></path><path id="SvgjsPath5995" d="M127.339 90.163c-3.614 0.398-13.873-1.561-14.253-2.847 -0.687-2.32 4.534-6.921 12.052-7.844 6.46-0.792 11.563 0.345 12.556 2.128 -0.898-6.4-7.7-11.397-15.987-11.434 -8.911-0.037-16.148 5.676-16.172 12.765 -0.021 7.088 7.185 12.862 16.095 12.902 8.913 0.037 16.149-5.676 16.173-12.764 0-0.105-0.016-0.208-0.019-0.313C136.453 88.083 130.949 89.764 127.339 90.163z" fill="url(#SvgjsRadialGradient5996)" opacity="1"></path><path id="SvgjsPath6000" d="M137.849 82.523c0.506-2.285-5.191-3.973-12.711-3.051 -7.518 0.923-12.738 5.524-12.052 7.844 0.38 1.286 10.639 3.245 14.253 2.847C131.003 89.758 136.627 88.04 137.849 82.523z" fill="url(#SvgjsRadialGradient6001)" opacity="1"></path><path id="SvgjsPath6004" d="M137.452 77.417c-4.208-1.978-9.35-2.16-13.838-1.005 -2.404 0.561-4.965 1.285-7.063 2.638 -1.945 1.135-3.525 2.5-5.002 4.19 1.342-1.701 2.773-3.118 4.623-4.27 2.276-1.416 4.769-2.294 7.364-2.916C128.123 74.928 133.259 75.184 137.452 77.417z" fill="#1e0c00" stroke-width="none" opacity="1"></path><path id="SvgjsPath6005" d="M136.832 78.02c-0.88-0.352-4.065-1-5.456-1.066 -1.687-0.082-5.073 0.125-6.735 0.424 -3.374 0.608-9.251 2.483-11.678 7.184 -0.746 1.445-0.074 2.456 0.123 2.675 -0.3-2.426 4.838-6.746 12.052-7.604 7.52-0.894 13.217 0.743 12.711 2.958 -1.222 5.348-6.846 7.013-10.51 7.405 -4.099 0.439-11.684-1.539-12.686-1.753 1.999 1.009 7.524 2.095 9.767 2.303 0.744 0.07 2.24 0.104 2.986 0.085 5.949-0.158 10.169-3.175 11.729-7.26C140.137 80.745 139.041 78.902 136.832 78.02z" fill="#000000" stroke-width="none" opacity="1"></path></g></g><g id="svga-group-facehighlight-single" ><path id="SvgjsPath2885" d="M141 113.974c0.035 22.622-18.292 40.994-40.938 41.025 -22.642 0.037-41.028-18.273-41.063-40.9 -0.035-22.62 18.292-41.064 40.937-41.1C122.579 72.964 140.967 91.349 141 113.974z" fill="url(#SvgjsRadialGradient2886)" opacity="1"></path><path id="SvgjsPath2889" d="M137.5 53.999c0 20.711-16.789 37.5-37.499 37.5 -20.711 0-37.501-16.789-37.501-37.5s16.79-37.5 37.501-37.5C120.711 16.499 137.5 33.288 137.5 53.999z" fill="url(#SvgjsRadialGradient2890)" opacity="1"></path></g><g id="svga-group-eyebrows-left" ><path id="SvgjsPath6018" d="M53.149 74.996c9.743-15.115 36.491 5.148 38.018-1.191 0.299-1.271-0.407-2.015-1.564-2.492C75.982 65.807 57.955 61.18 53.149 74.996z" fill="#2a232b" stroke-width="none" opacity="1"></path></g><g id="svga-group-eyebrows-right" ><path id="SvgjsPath6019" d="M146.851 74.996c-9.743-15.115-36.491 5.148-38.018-1.191 -0.299-1.271 0.407-2.015 1.564-2.492C124.018 65.807 142.045 61.18 146.851 74.996z" fill="#2a232b" stroke-width="none" opacity="1"></path></g><g id="svga-group-nose-single" ><path id="SvgjsPath6040" d="M91.115 115.499c-0.878 2.064 5.934 4.292 8.519 4.429 2.8 0.147 10.646-2.9 9.316-4.992 -1.399-2.195-6.643-0.286-8.906-0.286C97.792 114.649 92.291 112.745 91.115 115.499z" fill="#3d200d" stroke-width="none" opacity="1"></path><path id="SvgjsPath6041" d="M101.857 117.058c-0.23-0.759 1.876-1.584 2.657-1.694 1.101-0.16 3.36 0.802 3.158 1.592 -0.184 0.698-2.148-0.533-2.86-0.429C104.078 116.634 102.075 117.769 101.857 117.058zM94.974 116.811c0.968 0 2.404 0.623 2.668 0.074 0.315-0.655-2.139-1.461-2.86-1.372 -0.596 0.07-2.733 1.315-2.439 1.839C92.617 117.833 93.698 116.811 94.974 116.811z" fill="#1e0c00" stroke-width="none" opacity="1"></path><path id="SvgjsPath6042" d="M100.089 111.999c0.607 0 1.742-0.74 1.792-2.23 0.201-6.008-0.956-23.833-1.792-23.77 -0.78 0.059-2.267 17.637-1.948 23.77C98.22 111.271 99.404 111.999 100.089 111.999z" fill="#6b4c37" stroke-width="none" opacity="0.2"></path></g><g id="svga-group-beardwrap" ><g id="svga-group-beard-single" ><path id="SvgjsPath5948" d="M100,18.13L100,18.13L100,18.13L100,18.13z" fill="#2a232b" stroke-width="none" opacity="1"></path></g></g><g id="svga-group-mustache-single" ><path id="SvgjsPath5810" d="M100,18.13L100,18.13L100,18.13L100,18.13z" fill="#2a232b" stroke-width="none" opacity="1"></path></g><g id="svga-group-hair-front" ><path id="SvgjsPath5781" d="M81.229 37.267c12.868-1.984 19.271-3.835 26.7-2.011 17.444-4.256 44.396 12.821 44.058 12.472L141.505 9.063 88.143 6.881 81.229 37.267z" fill="#0c080c" stroke-width="none" opacity="1" stroke="none"></path><path id="SvgjsPath5782" d="M50.214 85.807c2.957 4.436 8.314 11.276 12.339 14.709 -2.166-5.199-11.455-39.957-5.884-58.116 6.415 19.058 17.901 30.843 28.959 35.166C90.152 84 96.677 90.884 102.587 95.204c-3.693-7.418-14.389-22.06-13.441-31.808 6.019 10.762 17.187 23.032 22.754 24.513C94.746 59.06 87.155 30.495 98.25 19.439c3.388 2.466 7.684 11.057 9.76 16.067 3.816-6.809 15.501-21.191 21.898-17.104 3.72 0.333 4.728 10.728 7.586 22.708 4.045 16.953 10.875 32.875-4.194 59.398 11.119-7.509 12.444-18.398 15.07-22.79 4.999 10.392-18.126 49.618-21.001 53.267C141.619 122.75 151.022 102.456 154 95c13.552-33.93 9.558-52.597 1.728-83.436 -7.896-9.581-18.07-17.045-29.498-21.929 -19.196-8.478-46.619-8.019-66.12-0.95 -23.241 8.537-45.426 35.3-44.1 59.82 0.534-2.312 1.689-7.771 3.347-10.7 4.39-7.421 7.084-12.414 19.143-22.311 -4.311 7.94-9.086 17.787-11.97 26.22 -0.379 1.2-0.099-0.002-0.92 3.19 -4.831 19.61-4.502 36.043 4.05 57.6 0-0.617-0.12-5.095-0.21-6.84 -0.829-30.82-3.078-26.765 4.546-46.484 -1.788 11.785-5.229 15.159 3.954 54.514 2.669 11.057 7.916 20.029 9.11 21.63 2.258 3.269 11.117 15.923 14.49 20.58 -0.205-0.998-3.327-14.442-3.46-15.01 0.075 0.201 0.149 0.398 0.224 0.6C54.358 117.327 49.203 101.373 50.214 85.807z" fill="#2a232b" stroke-width="none" opacity="1" stroke="none"></path><path id="SvgjsPath5783" d="M155.728 11.564c-1.649-2.001-3.403-3.904-5.241-5.716 11.457 21.016 11.061 63.695 0.934 85.15 7.038-29.279 4.398-51.764-3.538-68.978 1.987 16.464 2.237 31.978-1.69 49.464 -1.172-27.563-6.817-57.424-16.322-59.923 -10.977-2.886-15.539 8.058-20.769 13.673 -0.173-8.436-7.063-13.397-11.004-11.641 -9.891 4.408-8.668 29.141-6.553 40.405 -8.174-20.514-3.401-27.292-2.115-43.828 -13 15-12.089 31.694-7.428 48.829 -11-19-8-43 7-59C67.229 10.592 59.735 34.63 70.185 59.893 58.097 42.439 64.788 21.31 67.229 3.625 52.156 34.975 45.806 45.856 50.778 77c-13.436-30.542 1.965-56.832 9.727-69.149 -6 4-13.519 12.6-17.765 22.646C44.692 23.606 51.123 11.063 59 6c-13.274 4.286-19.292 15.971-22.461 23.692C41.606 7.936 59.577 3.009 66.338-2.241 46.903-0.249 37.683 11.521 30.683 17.521 39.525 3.052 51.008-4.183 69.016-13.938c-3.097 0.738-6.091 1.604-8.907 2.624 -23.241 8.537-45.426 35.3-44.1 59.82 0.534-2.312 1.689-7.771 3.347-10.7 4.39-7.421 7.084-12.414 19.143-22.311 -4.311 7.94-9.086 17.787-11.97 26.22 -0.379 1.2-0.099-0.002-0.92 3.19 -4.831 19.61-4.502 36.043 4.05 57.6 0-0.617-0.12-5.095-0.21-6.84 -0.829-30.82-3.078-26.765 4.546-46.484 -1.788 11.785-5.229 15.159 3.954 54.514 2.669 11.057 7.916 20.029 9.11 21.63 2.258 3.269 11.117 15.923 14.49 20.58 -0.205-0.998-3.327-14.442-3.46-15.01 0.075 0.201 0.149 0.398 0.224 0.6 -3.956-14.168-9.11-30.122-8.1-45.688 2.957 4.436 8.314 11.276 12.339 14.709 -2.166-5.199-11.455-39.957-5.884-58.116 6.415 19.058 17.901 30.843 28.959 35.166C90.152 84 96.677 90.884 102.587 95.204c-3.693-7.418-14.389-22.06-13.441-31.808 6.019 10.762 17.187 23.032 22.754 24.513C94.746 59.06 87.155 30.495 98.25 19.439c3.165 2.303 7.121 9.95 9.321 15.031 0.018-1.067 0.018-1.067 0 0 0.155 0.358 0.303 0.706 0.439 1.036 3.816-6.809 15.501-21.191 21.898-17.104 3.72 0.333 4.728 10.728 7.586 22.708 4.045 16.953 10.875 32.875-4.194 59.398 11.119-7.509 12.444-18.398 15.07-22.79 4.999 10.392-18.126 49.618-21.001 53.267C141.619 122.75 151.022 102.456 154 95 167.552 61.07 163.558 42.403 155.728 11.564z" fill="#1b141c" stroke-width="none" opacity="1" stroke="none"></path><path id="SvgjsPath5784" d="M54.619 131.235c-4.236-6.189-8.827-15.104-12.867-30.5 0 0-0.333-1.27-0.799-3.182 -4.715-19.148-7.161-35.212-2.584-50.318 -2.627 11.899-1.206 21.003 0.692 32.688C41.148 92.628 46.781 117.201 54.619 131.235zM33.619 36.485c-5.395 14.443-7.984 24.807-7.5 39C26.623 65.374 27.51 57.158 33.619 36.485zM55.619 38.985c-2.777 13.875-4.327 20.931-1.716 33.45 1.867 9.42 3.447 14.162 6.216 23.3C52.657 61.519 52.504 64.386 55.619 38.985zM72.869 41.735c1.788 20.072 12.09 36.972 27.25 50.5C86.549 77.997 75.978 60.925 72.869 41.735zM85.619 47.235c5.267 19.48 9.782 27.643 25.61 39.93C96.521 73.738 92.827 67.68 85.619 47.235zM165.804 32.739c-0.605-1.818-6.422-13.972-13.814-22.025 5.357 6.684 9.14 14.642 12.457 21.823 0.001 0 0.112 0.219 0.249 0.629 4.96 13.976 5.59 33.072 5.089 39.832C171.294 63.328 170.692 46.457 165.804 32.739zM152.88 94.235c-4.602 8.878-6.871 12.852-7.598 14.196 0.001 0-0.066 0.145-0.216 0.378 -7.072 11.362-8.508 11.86-15.897 20.216C140.68 117.921 143.675 115.46 152.88 94.235zM143.299 67.99c0.153 13.452-2.029 20.352-9.018 31.167C141.371 89.838 144.452 82.171 143.299 67.99zM53.368 117.333c0 0-0.196-0.748-0.432-1.883 -3.218-15.218-3.527-22.919-3.817-29.715 -0.429 13.946 0.793 27.354 8.5 50.75C57.619 136.485 55.753 127.676 53.368 117.333zM28.804 16.079c3.802-5.144 5.058-6.782 9.815-11.093 -8.532 6.663-14.775 14.633-19.724 29.688 -0.392 1.132-0.346 1.071-0.776 3.062C20.969 28.461 28.804 15.473 28.804 16.079zM57.429 41.485c4.052 13.7 12.798 26.843 25.671 34C71.097 67.419 62.26 54.079 57.429 41.485zM134.553 14.582c-1.265-1.483-2.858-2.238-4.327-2.826 1 0.481 1.648 0.748 2.607 1.548 1.106 1.053 2.361 2.361 3.324 4.244 5.606 10.221 9.457 41.919 10.297 52.955C146.421 59.6 143.574 24.02 134.553 14.582zM97.769 13.216c4.979 0.069 8.812 0.213 12.009 12.171C107.379 12.334 101.588 13.007 97.769 13.216zM89.335-0.068C80.56 6.535 75.979 18.659 75.792 29.408 76.833 18.938 81.454 6.861 89.335-0.068z" fill="#3a353a" stroke-width="none" opacity="1" stroke="none"></path><path id="SvgjsPath5785" d="M155.831 11.662c-7.896-9.582-18.174-17.143-29.602-22.027 -19.196-8.478-46.619-8.019-66.12-0.95 -23.241 8.537-45.426 35.3-44.1 59.82 2.566-11.025 8.714-20.72 22.49-33.01 -4.311 7.94-9.086 17.787-11.97 26.22 -0.379 1.2-0.099-0.002-0.92 3.19 -4.831 19.61-4.502 36.043 4.05 57.6 0-0.617-0.12-5.095-0.21-6.84 -0.829-30.82 0.813-32.675 5.837-51.161 -3.8 12.478-6.519 19.835 2.663 59.19 2.669 11.057 7.916 20.029 9.11 21.63 2.258 3.269 11.117 15.923 14.49 20.58 -0.206-1-11.993-45.903-11.29-58.21 3.365 4.433 9.484 11.38 13.86 14.88 -2.168-6.381-5.93-23.423-6.5-27.07 -0.09-0.65-0.22-1.57-0.38-2.68 -1.189-7.291-1.932-21.021-0.26-29.18 1.481 5.059 4.965 13.05 8.2 17.43 6.745 9.379 9.956 11.43 19.71 16.9 6.016 8.228 11.756 13.338 19.13 18.68 -11.845-20.011-13.297-24.944-14.49-32.12 5.456 11.223 12.598 19.667 23.689 24.61 -8.703-17.044-22.838-44.488-17.459-62.38 0.946-3.081 2.045-5.154 2.57-5.85v-0.02c0.068-0.147 0.06-0.129 0.1-0.2 1.688 1.205 7.787 9.563 9.5 15.56 0.011-0.01 0.011-0.02 0.021-0.03 1.267-2.533 4.484-7.169 7.729-10.56 16.615-16.613 16.758-2.04 18.721 7.41 8.082 32.594 11.446 46.342-3.431 69.58 8.596-3.947 15.656-15.089 17.521-24.45 -3.159 23.102-11.221 34.676-23.69 55.74 2.91-2.089 2.59-1.882 3.59-2.61 32.326-22.212 42.264-80.399 30.242-102.902 8.775 19.989 0.511 75.588-29.771 101.052 19.955-29.485 20.537-43.486 22.56-65.62 1.35-14.309 0.449-18.735-0.479-23.47 0.543 4.677 0.84 7.448-0.261 17.42 -1.973 15.043-4.987 31.514-16.689 41.79 13.733-20.855 10.343-35.993 2.68-65.98 -1.979-7.784-2.434-23.397-15.47-14.3 -5.16 3.425-10.166 10.124-12.99 15.68 -1.562-5.649-4.792-11.777-9.97-17.24 -0.02-0.02-0.05-0.07-0.07-0.06 -1.822 2.912-10.67 11.246-2.61 37.07 3.86 12.465 9.448 22.083 15.67 32.39 -13.746-7.828-28.114-32.458-26.791-51.62 0.313-5.359 1.382-12.417 1.22-17.9 -0.807 13.3-5.346 21.354-0.98 34.6 0 0 1.26 4.12 3.15 8.55 0.561 13.101 6.94 22.296 13.94 33.65 -17.286-15.125-27.847-36.655-30.3-57.9 -0.6-8.81 3.465-23.018 7.2-25.15 -3.907 2.627-8.805 12.239-9.31 23.48 -0.385 10.926 6.498 30.484 14.2 41.27 -9.374-6.058-18.5-12.899-26.13-34.66 1.899-8.935 4.806-14.084 5.6-25.91 -1.883 12.57-4.897 15.589-8.03 28.11 -2.011 7.073-2.438 30.361 6.75 55.33 -5.463-6.071-14.528-19.557-16.93-27.3 -8.496-22.848 3.521-47.839 6.52-51.8 1.659-2.32 4.089-4.836 5.07-7.43 -3.984 6.947-6.792 4.377-14.27 24.56 -3.99 11.964-3.175 25.464 0.46 35.44 1.321 3.516 4.859 9.505 6.88 14.2 -1.688 13.469 5.969 41.852 9.82 54.5 -10.324-16.373-17.78-24.85-22.22-53.02 -3.586-22.754-7.284-36.619 11.98-75.14 -3.442 6.136-5.164 9.043-9.13 17.13l-0.01 0.01c-9.9 20.647-13.651 35.24-12.38 60.03 -6.982-29.604 0.523-49.203 13.14-76.29C42.383 11.562 54.786 3.262 59.629 0c-4.802 2.877-35.973 19.182-42.84 43.215C19.123 22.46 38.134-1.463 60.599-9.475c18.812-6.53 46.021-7.101 64.75 1.18 12.789 5.481 23.954 14.45 31.83 25.437L155.831 11.662z" fill="#000000" stroke-width="none" opacity="1" stroke="none"></path></g><g id="svga-group-glasses-single" ><path id="SvgjsPath6020" d="M100,18.13L100,18.13L100,18.13L100,18.13z" fill="#26120b" stroke-width="none" opacity="1"></path></g></g></g><rect id="SvgjsRect1036" width="200" height="15" x="0" y="185" fill="#ecf0f1" opacity="0.5" style="display:none;"></rect><text id="SvgjsText1037" font-family="&quot;Roboto&quot;, &quot;Helvetica Neue&quot;, Helvetica, Arial, sans-serif" style="font-size:0.84em;font-family:&quot;Roboto&quot;, &quot;Helvetica Neue&quot;, Helvetica, Arial, sans-serif;text-anchor:middle;font-weight:400;display:none;" font-size="0.84em" text-anchor="middle" font-weight="400" fill="#000000" x="100" y="185"><tspan id="SvgjsTspan1038" dy="1.2em" x="100" style="font-size:0.84em;font-family:&quot;Roboto&quot;, &quot;Helvetica Neue&quot;, Helvetica, Arial, sans-serif;text-anchor:middle;font-weight:400;">Created by face.co</tspan></text></g><defs id="SvgjsDefs1001"><radialGradient id="SvgjsRadialGradient2886" cx="100" cy="114" r="41" gradientUnits="userSpaceOnUse" class="svga-on-canvas-facehighlight-gradient-single-0"><stop id="SvgjsStop2887" stop-opacity="0.5" stop-color="#5b3b26" offset="0" ></stop><stop id="SvgjsStop2888" stop-opacity="0" stop-color="#4c2d18" offset="0.9" ></stop></radialGradient><radialGradient id="SvgjsRadialGradient2890" cx="100" cy="54" r="37" gradientUnits="userSpaceOnUse" class="svga-on-canvas-facehighlight-gradient-single-1"><stop id="SvgjsStop2891" stop-opacity="0.5" stop-color="#5b3b26" offset="0" ></stop><stop id="SvgjsStop2892" stop-opacity="0" stop-color="#4c2d18" offset="0.9" ></stop></radialGradient><radialGradient id="SvgjsRadialGradient5140" cx="-582.838" cy="-519.099" r="59.745" gradientTransform="matrix(0.0991 8.856319e-004 -0.0011 0.0991 131.1134 135.9855)" gradientUnits="userSpaceOnUse" class="svga-on-canvas-eyesiris-gradient-left-2"><stop id="SvgjsStop5141" stop-opacity="1" stop-color="#ffffff" offset="0" ></stop><stop id="SvgjsStop5142" stop-opacity="0" stop-color="#ffffff" offset="1" ></stop></radialGradient><linearGradient id="SvgjsLinearGradient5146" x1="122.67" y1="88.268" x2="123.606" y2="87.152" gradientTransform="matrix(1 0 0 1 -52 0)" gradientUnits="userSpaceOnUse" class="svga-on-canvas-eyesiris-gradient-left-5"><stop id="SvgjsStop5147" stop-opacity="1" stop-color="#ffffff" offset="0" ></stop><stop id="SvgjsStop5148" stop-opacity="0" stop-color="#ffffff" offset="1" ></stop></linearGradient><linearGradient id="SvgjsLinearGradient5154" x1="129.636" y1="79.822" x2="127.91" y2="81.879" gradientTransform="matrix(1 0 0 1 -52 0)" gradientUnits="userSpaceOnUse" class="svga-on-canvas-eyesiris-gradient-left-7"><stop id="SvgjsStop5155" stop-opacity="1" stop-color="#ffffff" offset="0" ></stop><stop id="SvgjsStop5156" stop-opacity="0" stop-color="#ffffff" offset="1" ></stop></linearGradient><radialGradient id="SvgjsRadialGradient5163" cx="-582.833" cy="-519.102" r="59.747" gradientTransform="matrix(0.0991 8.856319e-004 -0.0011 0.0991 183.1126 135.9856)" gradientUnits="userSpaceOnUse" class="svga-on-canvas-eyesiris-gradient-right-2"><stop id="SvgjsStop5164" stop-opacity="1" stop-color="#ffffff" offset="0" ></stop><stop id="SvgjsStop5165" stop-opacity="0" stop-color="#ffffff" offset="1" ></stop></radialGradient><linearGradient id="SvgjsLinearGradient5169" x1="122.67" y1="88.268" x2="123.606" y2="87.152" gradientUnits="userSpaceOnUse" class="svga-on-canvas-eyesiris-gradient-right-5"><stop id="SvgjsStop5170" stop-opacity="1" stop-color="#ffffff" offset="0" ></stop><stop id="SvgjsStop5171" stop-opacity="0" stop-color="#ffffff" offset="1" ></stop></linearGradient><linearGradient id="SvgjsLinearGradient5177" x1="129.636" y1="79.822" x2="127.91" y2="81.879" gradientUnits="userSpaceOnUse" class="svga-on-canvas-eyesiris-gradient-right-7"><stop id="SvgjsStop5178" stop-opacity="1" stop-color="#ffffff" offset="0" ></stop><stop id="SvgjsStop5179" stop-opacity="0" stop-color="#ffffff" offset="1" ></stop></linearGradient><linearGradient id="SvgjsLinearGradient5373" x1="132" y1="78" x2="126" y2="84" gradientTransform="matrix(1 0 0 1 -50 0)" gradientUnits="userSpaceOnUse" class="svga-on-canvas-eyesiris-gradient-left-6"><stop id="SvgjsStop5374" stop-opacity="1" stop-color="#ffffff" offset="0" ></stop><stop id="SvgjsStop5375" stop-opacity="0" stop-color="#ffffff" offset="1" ></stop></linearGradient><linearGradient id="SvgjsLinearGradient5383" x1="132" y1="78" x2="126" y2="84" gradientUnits="userSpaceOnUse" class="svga-on-canvas-eyesiris-gradient-right-6"><stop id="SvgjsStop5384" stop-opacity="1" stop-color="#ffffff" offset="0" ></stop><stop id="SvgjsStop5385" stop-opacity="0" stop-color="#ffffff" offset="1" ></stop></linearGradient><linearGradient id="SvgjsLinearGradient5442" x1="127.637" y1="79.822" x2="125.91" y2="81.88" gradientTransform="matrix(1 0 0 1 -50 0)" gradientUnits="userSpaceOnUse" class="svga-on-canvas-eyesiris-gradient-left-1"><stop id="SvgjsStop5443" stop-opacity="1" stop-color="#ffffff" offset="0" ></stop><stop id="SvgjsStop5444" stop-opacity="0" stop-color="#ffffff" offset="1" ></stop></linearGradient><linearGradient id="SvgjsLinearGradient5447" x1="129.637" y1="79.823" x2="127.91" y2="81.881" gradientUnits="userSpaceOnUse" class="svga-on-canvas-eyesiris-gradient-right-1"><stop id="SvgjsStop5448" stop-opacity="1" stop-color="#ffffff" offset="0" ></stop><stop id="SvgjsStop5449" stop-opacity="0" stop-color="#ffffff" offset="1" ></stop></linearGradient><linearGradient id="SvgjsLinearGradient5609" x1="100" y1="110" x2="100" y2="73" gradientUnits="userSpaceOnUse" class="svga-on-canvas-glasses-gradient-single-0"><stop id="SvgjsStop5610" stop-opacity="0.6" stop-color="#151124" offset="0" ></stop><stop id="SvgjsStop5611" stop-opacity="1" stop-color="#151124" offset="1" ></stop></linearGradient><radialGradient id="SvgjsRadialGradient5953" cx="129.041" cy="83.945" r="15.117" gradientTransform="matrix(-0.9945 0.1042 0.1042 0.9945 192.8281 -12.4633)" gradientUnits="userSpaceOnUse" class="svga-on-canvas-eyesback-gradient-left-0"><stop id="SvgjsStop5954" stop-opacity="1" stop-color="#ffffff" offset="0" ></stop><stop id="SvgjsStop5955" stop-opacity="1" stop-color="#fcfdfd" offset="0.315" ></stop><stop id="SvgjsStop5956" stop-opacity="1" stop-color="#f4f7f8" offset="0.504" ></stop><stop id="SvgjsStop5957" stop-opacity="1" stop-color="#e5ecef" offset="0.66" ></stop><stop id="SvgjsStop5958" stop-opacity="1" stop-color="#d8e2e7" offset="0.76" ></stop></radialGradient><radialGradient id="SvgjsRadialGradient5960" cx="128.643" cy="83.986" r="15.116" gradientTransform="matrix(0.9945 0.1042 -0.1042 0.9945 7.1738 -12.4633)" gradientUnits="userSpaceOnUse" class="svga-on-canvas-eyesback-gradient-right-0"><stop id="SvgjsStop5961" stop-opacity="1" stop-color="#ffffff" offset="0" ></stop><stop id="SvgjsStop5962" stop-opacity="1" stop-color="#fcfdfd" offset="0.316" ></stop><stop id="SvgjsStop5963" stop-opacity="1" stop-color="#f4f7f8" offset="0.505" ></stop><stop id="SvgjsStop5964" stop-opacity="1" stop-color="#e5ecef" offset="0.661" ></stop><stop id="SvgjsStop5965" stop-opacity="1" stop-color="#d8e2e7" offset="0.76" ></stop></radialGradient><radialGradient id="SvgjsRadialGradient5967" cx="129.041" cy="83.945" r="15.117" gradientTransform="matrix(-0.9945 0.1042 0.1042 0.9945 192.8281 -12.4633)" gradientUnits="userSpaceOnUse" class="svga-on-canvas-eyesfront-gradient-left-0"><stop id="SvgjsStop5968" stop-opacity="1" stop-color="#ffffff" offset="0" ></stop><stop id="SvgjsStop5969" stop-opacity="1" stop-color="#fcfdfd" offset="0.316" ></stop><stop id="SvgjsStop5970" stop-opacity="1" stop-color="#f4f7f8" offset="0.505" ></stop><stop id="SvgjsStop5971" stop-opacity="1" stop-color="#e5ecef" offset="0.661" ></stop><stop id="SvgjsStop5972" stop-opacity="1" stop-color="#d8e2e7" offset="0.76" ></stop></radialGradient><radialGradient id="SvgjsRadialGradient5976" cx="121.986" cy="82.496" fx="133.239" fy="82.527" r="16.003" gradientTransform="matrix(0.9998 0.0208 0.0166 -0.7998 -45.3195 145.9395)" gradientUnits="userSpaceOnUse" class="svga-on-canvas-eyesfront-gradient-left-3"><stop id="SvgjsStop5977" stop-opacity="1" stop-color="#3d200d" offset="0" ></stop><stop id="SvgjsStop5978" stop-opacity="0.3" stop-color="#3d200d" offset="0.7" ></stop><stop id="SvgjsStop5979" stop-opacity="0" stop-color="#4c2d18" offset="1" ></stop></radialGradient><radialGradient id="SvgjsRadialGradient5981" cx="68.931" cy="105.995" r="29.524" gradientTransform="matrix(1.0336 0 0 1.0336 -1.6796 1.3127)" gradientUnits="userSpaceOnUse" class="svga-on-canvas-eyesfront-gradient-left-4"><stop id="SvgjsStop5982" stop-opacity="0" stop-color="#000000" offset="0.95" ></stop><stop id="SvgjsStop5983" stop-opacity="0.2" stop-color="#000000" offset="1" ></stop></radialGradient><radialGradient id="SvgjsRadialGradient5987" cx="128.643" cy="83.986" r="15.116" gradientTransform="matrix(0.9945 0.1042 -0.1042 0.9945 7.1738 -12.4633)" gradientUnits="userSpaceOnUse" class="svga-on-canvas-eyesfront-gradient-right-0"><stop id="SvgjsStop5988" stop-opacity="1" stop-color="#ffffff" offset="0" ></stop><stop id="SvgjsStop5989" stop-opacity="1" stop-color="#fcfdfd" offset="0.316" ></stop><stop id="SvgjsStop5990" stop-opacity="1" stop-color="#f4f7f8" offset="0.505" ></stop><stop id="SvgjsStop5991" stop-opacity="1" stop-color="#e5ecef" offset="0.661" ></stop><stop id="SvgjsStop5992" stop-opacity="1" stop-color="#d8e2e7" offset="0.76" ></stop></radialGradient><radialGradient id="SvgjsRadialGradient5996" cx="121.587" cy="82.496" fx="132.839" fy="82.527" r="16.003" gradientTransform="matrix(-0.9998 0.0208 -0.0166 -0.7998 244.5208 145.9478)" gradientUnits="userSpaceOnUse" class="svga-on-canvas-eyesfront-gradient-right-3"><stop id="SvgjsStop5997" stop-opacity="1" stop-color="#3d200d" offset="0" ></stop><stop id="SvgjsStop5998" stop-opacity="0.3" stop-color="#3d200d" offset="0.7" ></stop><stop id="SvgjsStop5999" stop-opacity="0" stop-color="#4c2d18" offset="1" ></stop></radialGradient><radialGradient id="SvgjsRadialGradient6001" cx="69.316" cy="105.995" r="29.524" gradientTransform="matrix(-1.0336 0 0 1.0336 201.6796 1.3127)" gradientUnits="userSpaceOnUse" class="svga-on-canvas-eyesfront-gradient-right-4"><stop id="SvgjsStop6002" stop-opacity="0" stop-color="#000000" offset="0.95" ></stop><stop id="SvgjsStop6003" stop-opacity="0.2" stop-color="#000000" offset="1" ></stop></radialGradient><linearGradient id="SvgjsLinearGradient6030" x1="100" y1="171" x2="100" y2="128" gradientUnits="userSpaceOnUse" class="svga-on-canvas-chinshadow-gradient-single-0"><stop id="SvgjsStop6031" stop-opacity="0.8" stop-color="#3d200d" offset="0" ></stop><stop id="SvgjsStop6032" stop-opacity="1" stop-color="#1e0c00" offset="0.7" ></stop></linearGradient><linearGradient id="SvgjsLinearGradient6067" x1="100" y1="141" x2="100" y2="137" gradientUnits="userSpaceOnUse" class="svga-on-canvas-mouth-gradient-single-0"><stop id="SvgjsStop6068" stop-opacity="1" stop-color="#442612" offset="0.1" ></stop><stop id="SvgjsStop6069" stop-opacity="1" stop-color="#3d200d" offset="1" ></stop></linearGradient></defs></svg>