<?xml version="1.0" encoding="utf-8"?>
<!-- Generator: Adobe Illustrator 16.0.0, SVG Export Plug-In . SVG Version: 6.00 Build 0)  -->
<!DOCTYPE svg PUBLIC "-//W3C//DTD SVG 1.1//EN" "http://www.w3.org/Graphics/SVG/1.1/DTD/svg11.dtd">
<svg version="1.1" id="Calque_1" xmlns="http://www.w3.org/2000/svg" xmlns:xlink="http://www.w3.org/1999/xlink" x="0px" y="0px"
	 width="263.83px" height="140.426px" viewBox="0 0 263.83 140.426" enable-background="new 0 0 263.83 140.426"
	 xml:space="preserve">
<text transform="matrix(1 0 0 1 72.7188 135.2246)" fill="#4EC4DA" stroke="#4EC4DA" stroke-linecap="round" stroke-miterlimit="10" font-family="'QuicksandBook-Regular'" font-size="90" letter-spacing="-7">nosis</text>
<g>
	<path fill="#4EC4DA" stroke="#FFFFFF" stroke-miterlimit="10" d="M9.605,64.844l34.613,69.228c0.354,0.708,1.074,1.152,1.867,1.152
		s1.512-0.444,1.866-1.152l34.613-69.228c2.979-5.955,4.357-12.173,4.355-18.224c-0.002-10.717-4.298-20.9-11.547-28.42
		C68.13,10.676,57.879,5.813,46.085,5.818l0,0c-11.794-0.005-22.045,4.859-29.289,12.38C9.548,25.72,5.251,35.903,5.249,46.618
		C5.249,52.67,6.626,58.889,9.605,64.844z"/>
</g>
<text transform="matrix(1 0 0 1 20.0576 66.2568)" fill="#FFFFFF" stroke="#FFFFFF" stroke-miterlimit="10" font-family="'QuicksandBook-Regular'" font-size="90">e</text>
</svg>
