<?xml version="1.0" standalone="yes"?>

<svg version="1.1" viewBox="0.0 0.0 960.0 720.0" fill="none" stroke="none" stroke-linecap="square" stroke-miterlimit="10" xmlns="http://www.w3.org/2000/svg" xmlns:xlink="http://www.w3.org/1999/xlink"><clipPath id="p.0"><path d="m0 0l960.0 0l0 720.0l-960.0 0l0 -720.0z" clip-rule="nonzero"></path></clipPath><g clip-path="url(#p.0)"><path fill="#000000" fill-opacity="0.0" d="m0 0l960.0 0l0 720.0l-960.0 0z" fill-rule="nonzero"></path><path fill="#ffffff" d="m98.20473 210.8808l210.88078 -210.8808l341.82898 0l210.8808 210.8808l0 298.2384l-210.8808 210.8808l-341.82898 0l-210.88078 -210.8808z" fill-rule="nonzero"></path><path stroke="#000000" stroke-width="1.0" stroke-linejoin="round" stroke-linecap="butt" d="m98.20473 210.8808l210.88078 -210.8808l341.82898 0l210.8808 210.8808l0 298.2384l-210.8808 210.8808l-341.82898 0l-210.88078 -210.8808z" fill-rule="nonzero"></path><path fill="#ff0000" d="m114.84655 218.66292l199.87552 -199.87552l329.2568 0l199.87555 199.87552l0 282.6742l-199.87555 199.87549l-329.2568 0l-199.87552 -199.87549z" fill-rule="nonzero"></path><path stroke="#000000" stroke-width="1.0" stroke-linejoin="round" stroke-linecap="butt" d="m114.84655 218.66292l199.87552 -199.87552l329.2568 0l199.87555 199.87552l0 282.6742l-199.87555 199.87549l-329.2568 0l-199.87552 -199.87549z" fill-rule="nonzero"></path><path fill="#000000" fill-opacity="0.0" d="m172.97638 190.94751l611.77954 0l0 136.75589l-611.77954 0z" fill-rule="nonzero"></path><path fill="#ffffff" d="m202.32013 455.9475l0 -191.125l25.9375 0l100.390625 150.0625l0 -150.0625l24.25 0l0 191.125l-25.953125 0l-100.375 -150.1875l0 150.1875l-24.25 0zm185.13309 -93.078125q0 -47.59375 25.546875 -74.515625q25.56253 -26.921875 65.96878 -26.921875q26.46875 0 47.71875 12.65625q21.25 12.640625 32.390625 35.265625q11.15625 22.609375 11.15625 51.296875q0 29.0625 -11.734375 52.015625q-11.734375 22.9375 -33.25 34.75q-21.5 11.796875 -46.40625 11.796875q-26.984375 0 -48.234375 -13.03125q-21.25003 -13.046875 -32.203156 -35.59375q-10.953125 -22.5625 -10.953125 -47.71875zm26.078125 0.390625q0 34.546875 18.578156 54.4375q18.578125 19.875 46.609375 19.875q28.546875 0 46.984375 -20.078125q18.453125 -20.078125 18.453125 -56.984375q0 -23.328125 -7.890625 -40.734375q-7.875 -17.40625 -23.0625 -26.984375q-15.1875 -9.578125 -34.09375 -9.578125q-26.859375 0 -46.21875 18.453125q-19.359406 18.4375 -19.359406 61.59375zm188.77316 92.6875l0 -191.125l25.9375 0l100.390625 150.0625l0 -150.0625l24.25 0l0 191.125l-25.953125 0l-100.375 -150.1875l0 150.1875l-24.25 0z" fill-rule="nonzero"></path></g></svg>

