<?xml version="1.0" standalone="yes"?>

<svg version="1.1" viewBox="0.0 0.0 960.0 720.0" fill="none" stroke="none" stroke-linecap="square" stroke-miterlimit="10" xmlns="http://www.w3.org/2000/svg" xmlns:xlink="http://www.w3.org/1999/xlink"><clipPath id="p.0"><path d="m0 0l960.0 0l0 720.0l-960.0 0l0 -720.0z" clip-rule="nonzero"></path></clipPath><g clip-path="url(#p.0)"><path fill="#000000" fill-opacity="0.0" d="m0 0l960.0 0l0 720.0l-960.0 0z" fill-rule="nonzero"></path><path fill="#ff0000" d="m120.755905 360.0l0 0c0 -198.82251 160.83907 -360.0 359.24408 -360.0l0 0c95.277466 0 186.65259 37.928463 254.02393 105.44156c67.37134 67.51309 105.22015 159.0805 105.22015 254.55844l0 0c0 198.82251 -160.83905 360.0 -359.24408 360.0l0 0c-198.40503 0 -359.24408 -161.17749 -359.24408 -360.0z" fill-rule="nonzero"></path><path fill="#ffffff" d="m176.99213 360.0l0 0c0 -173.63484 135.66125 -314.3937 303.00787 -314.3937l0 0c80.36267 0 157.4339 33.123528 214.25891 92.08378c56.825012 58.960266 88.74896 138.92754 88.74896 222.30992l0 0c0 173.63483 -135.66125 314.39368 -303.00787 314.39368l0 0c-167.34662 0 -303.00787 -140.75885 -303.00787 -314.39368z" fill-rule="nonzero"></path><path fill="#000000" fill-opacity="0.0" d="m190.44255 178.87138l589.10236 0l0 336.69293l-589.10236 0z" fill-rule="nonzero"></path><path fill="#000000" d="m309.47382 368.90265l0 -22.421875l80.96875 -0.125l0 70.921875q-18.65625 14.859375 -38.46875 22.359375q-19.8125 7.5 -40.671875 7.5q-28.15625 0 -51.171875 -12.0625q-23.01564 -12.0625 -34.750015 -34.875q-11.734375 -22.8125 -11.734375 -50.984375q0 -27.890625 11.671875 -52.078125q11.671875 -24.1875 33.57814 -35.921875q21.90625 -11.73439 50.453125 -11.73439q20.71875 0 37.46875 6.7187653q16.765625 6.71875 26.28125 18.71875q9.515625 11.984375 14.46875 31.28125l-22.8125 6.25q-4.296875 -14.59375 -10.6875 -22.9375q-6.390625 -8.34375 -18.265625 -13.359375q-11.859375 -5.015625 -26.328125 -5.015625q-17.34375 0 -29.984375 5.28125q-12.640625 5.265625 -20.40625 13.875q-7.7500153 8.609375 -12.062515 18.90625q-7.296875 17.734375 -7.296875 38.453125q0 25.5625 8.796875 42.765625q8.812515 17.203125 25.625015 25.546875q16.8125 8.34375 35.71875 8.34375q16.421875 0 32.0625 -6.3125q15.65625 -6.328125 23.734375 -13.5l0 -35.59375l-56.1875 0zm117.97626 74.96875l0 -191.12502l72.09375 0q19.046875 0 29.078125 1.828125q14.078125 2.3437653 23.59375 8.937515q9.515625 6.578125 15.3125 18.4375q5.8125 11.859375 5.8125 26.078125q0 24.375 -15.515625 41.265625q-15.515625 16.875 -56.0625 16.875l-49.015625 0l0 77.703125l-25.296875 0zm25.296875 -100.25l49.40625 0q24.515625 0 34.8125 -9.125q10.296875 -9.125 10.296875 -25.6875q0 -12.0 -6.0625 -20.53125q-6.0625 -8.546875 -15.96875 -11.28125q-6.390625 -1.6875 -23.59375 -1.6875l-48.890625 0l0 68.3125zm143.96704 38.84375l23.859375 -2.078125q1.6875 14.328125 7.875 23.53125q6.203125 9.1875 19.234375 14.859375q13.03125 5.671875 29.328125 5.671875q14.484375 0 25.5625 -4.296875q11.078125 -4.3125 16.484375 -11.796875q5.421875 -7.5 5.421875 -16.375q0 -9.0 -5.21875 -15.703125q-5.21875 -6.71875 -17.21875 -11.28125q-7.6875 -3.0 -34.03125 -9.3125q-26.328125 -6.328125 -36.890625 -11.9375q-13.6875 -7.171875 -20.40625 -17.796875q-6.703125 -10.625 -6.703125 -23.796875q0 -14.46875 8.203125 -27.046875q8.21875 -12.578125 23.984375 -19.09375q15.78125 -6.5312653 35.078125 -6.5312653q21.25 0 37.484375 6.8593903q16.234375 6.84375 24.96875 20.140625q8.734375 13.296875 9.390625 30.109375l-24.25 1.828125q-1.953125 -18.125 -13.234375 -27.375q-11.28125 -9.265625 -33.3125 -9.265625q-22.9375 0 -33.4375 8.421875q-10.5 8.40625 -10.5 20.265625q0 10.296875 7.4375 16.953125q7.296875 6.640625 38.125 13.625q30.84375 6.96875 42.3125 12.1875q16.6875 7.6875 24.640625 19.484375q7.953125 11.796875 7.953125 27.1875q0 15.25 -8.734375 28.75q-8.734375 13.484375 -25.109375 20.984375q-16.359375 7.5 -36.828125 7.5q-25.9375 0 -43.46875 -7.5625q-17.53125 -7.5625 -27.515625 -22.75q-9.96875 -15.1875 -10.484375 -34.359375z" fill-rule="nonzero"></path><path fill="#ff0000" d="m755.7237 141.85577l-521.2913 456.72443l-34.866135 -39.811035l521.2913 -456.72443z" fill-rule="nonzero"></path></g></svg>

