<?xml version="1.0" encoding="utf-8"?>
<!-- Generator: Adobe Illustrator 16.0.0, SVG Export Plug-In . SVG Version: 6.00 Build 0)  -->
<!DOCTYPE svg PUBLIC "-//W3C//DTD SVG 1.1//EN" "http://www.w3.org/Graphics/SVG/1.1/DTD/svg11.dtd">
<svg version="1.1" id="Calque_1" xmlns="http://www.w3.org/2000/svg" xmlns:xlink="http://www.w3.org/1999/xlink" x="0px" y="0px"
	 width="124.656px" height="117.205px" viewBox="0 0 124.656 117.205" enable-background="new 0 0 124.656 117.205"
	 xml:space="preserve">
<circle fill="#FFFFFF" cx="63.004" cy="61.188" r="46"/>
<g id="XMLID_28_">
	<path id="XMLID_31_" fill="#908F8E" d="M63.006,40.777c3.247,0,5.884-2.636,5.884-5.885c0-3.251-2.638-5.886-5.884-5.886
		c-3.25,0-5.886,2.635-5.886,5.886C57.12,38.141,59.755,40.777,63.006,40.777z"/>
	<path id="XMLID_30_" fill="#908F8E" d="M72.099,74.123c-1.563,5.431-6.568,9.417-12.495,9.417c-7.177,0-13.014-5.838-13.014-13.011
		c0-5.311,3.205-9.882,7.777-11.901v-5.516c-7.488,2.255-12.959,9.205-12.959,17.417c0,10.031,8.163,18.194,18.196,18.194
		c7.312,0,13.613-4.347,16.503-10.58l-2.054-4.038C73.476,74.111,72.807,74.116,72.099,74.123z"/>
	<path id="XMLID_29_" fill="#908F8E" d="M89.244,81.108l-7.882-15.496c-0.588-1.16-1.777-1.891-3.079-1.891H68.188V61.42h8.688
		c0.868,0,1.597-0.455,2.067-1.108c0.307-0.424,0.524-0.92,0.524-1.484c0-1.432-1.159-2.592-2.592-2.592h-5.234h-3.454v-7.809
		c0-2.146-1.593-5.184-5.182-5.184c-2.862,0-5.183,2.322-5.183,5.184v16.917c0,2.92,2.368,5.288,5.288,5.288h9.5h3.555l6.922,13.608
		c0.607,1.198,1.822,1.891,3.082,1.891c0.527,0,1.062-0.121,1.563-0.377C89.435,84.891,90.112,82.808,89.244,81.108z"/>
</g>
</svg>
