<?xml version="1.0" encoding="utf-8"?>
<!-- Generator: Adobe Illustrator 16.0.0, SVG Export Plug-In . SVG Version: 6.00 Build 0)  -->
<!DOCTYPE svg PUBLIC "-//W3C//DTD SVG 1.1//EN" "http://www.w3.org/Graphics/SVG/1.1/DTD/svg11.dtd">
<svg version="1.1" id="Calque_1" xmlns="http://www.w3.org/2000/svg" xmlns:xlink="http://www.w3.org/1999/xlink" x="0px" y="0px"
	 width="115.054px" height="108.603px" viewBox="0 0 115.054 108.603" enable-background="new 0 0 115.054 108.603"
	 xml:space="preserve">
<circle fill="#FFFFFF" cx="54.123" cy="53.875" r="46"/>
<g transform="translate(0,-952.36218)" opacity="0.9">
	<path fill="#908F8E" stroke="#8F8E8E" stroke-width="2" stroke-miterlimit="10" d="M54.123,984.464
		c-3.002,0-5.443,2.441-5.443,5.442v2.334H30.795c-2.141,0-3.889,1.747-3.889,3.888v27.993c0,2.141,1.748,3.889,3.889,3.889h46.656
		c2.14,0,3.888-1.748,3.888-3.889v-27.993c0-2.141-1.748-3.888-3.888-3.888H59.566v-2.334
		C59.566,986.905,57.125,984.464,54.123,984.464z M54.123,986.02c2.167,0,3.888,1.72,3.888,3.886v6.222
		c0,2.167-1.721,3.888-3.888,3.888c-2.168,0-3.888-1.721-3.888-3.888v-6.222C50.235,987.74,51.955,986.02,54.123,986.02z
		 M54.123,988.351c-0.859,0-1.555,0.696-1.555,1.555c0,0.859,0.696,1.557,1.555,1.557c0.858,0,1.555-0.697,1.555-1.557
		C55.678,989.048,54.981,988.351,54.123,988.351z M30.795,993.795H48.68v2.333c0,3.002,2.441,5.444,5.443,5.444
		s5.443-2.442,5.443-5.444v-2.333h17.885c1.306,0,2.332,1.027,2.332,2.333v27.993c0,1.307-1.026,2.333-2.332,2.333H30.795
		c-1.306,0-2.333-1.026-2.333-2.333v-27.993C28.462,994.822,29.489,993.795,30.795,993.795z M41.681,1000.794
		c-3.426,0-6.221,2.794-6.221,6.221c0,1.786,0.754,3.406,1.968,4.544c-2.54,2.081-4.569,5.967-5.079,10.133
		c-0.054,0.427,0.248,0.816,0.674,0.868c0.034,0.005,0.068,0.006,0.103,0.006h17.107c0.43,0.005,0.78-0.341,0.783-0.771
		c0-0.034-0.001-0.067-0.006-0.103c-0.51-4.166-2.539-8.052-5.078-10.133c1.213-1.138,1.968-2.758,1.968-4.544
		C47.902,1003.588,45.107,1000.794,41.681,1000.794z M41.681,1002.349c2.586,0,4.666,2.078,4.666,4.665
		c0,2.586-2.08,4.665-4.666,4.665c-2.585,0-4.666-2.079-4.666-4.665C37.016,1004.428,39.096,1002.349,41.681,1002.349z
		 M57.866,1006.236c-0.43,0.041-0.746,0.421-0.706,0.852c0.04,0.429,0.421,0.744,0.851,0.704h17.107
		c0.43,0.006,0.781-0.337,0.788-0.767c0.006-0.43-0.337-0.783-0.767-0.789c-0.006-0.001-0.015-0.001-0.021,0H58.011
		C57.962,1006.231,57.914,1006.231,57.866,1006.236z M57.866,1010.902c-0.43,0.04-0.746,0.421-0.706,0.851
		c0.04,0.429,0.421,0.745,0.851,0.706l0,0h17.107c0.43,0.006,0.781-0.338,0.788-0.768c0.006-0.432-0.337-0.783-0.767-0.789
		c-0.006,0-0.015,0-0.021,0H58.011C57.962,1010.898,57.914,1010.898,57.866,1010.902z M38.766,1012.506
		c0.87,0.464,1.864,0.729,2.916,0.729s2.045-0.265,2.917-0.729c2.027,1.499,3.994,4.864,4.665,8.506H34.1
		C34.771,1017.37,36.737,1014.005,38.766,1012.506z M57.866,1015.567c-0.43,0.039-0.746,0.421-0.706,0.851s0.421,0.744,0.851,0.705
		h17.107c0.43,0.005,0.781-0.338,0.788-0.767c0.006-0.43-0.337-0.783-0.767-0.789c-0.006,0-0.015,0-0.021,0H58.011
		C57.962,1015.562,57.914,1015.562,57.866,1015.567z"/>
</g>
<line fill="none" stroke="#908F8E" stroke-width="4" stroke-miterlimit="10" x1="29.795" y1="32.948" x2="84.823" y2="80.58"/>
</svg>
