<?xml version="1.0" encoding="utf-8"?>
<!-- Generator: Adobe Illustrator 16.0.0, SVG Export Plug-In . SVG Version: 6.00 Build 0)  -->
<!DOCTYPE svg PUBLIC "-//W3C//DTD SVG 1.1//EN" "http://www.w3.org/Graphics/SVG/1.1/DTD/svg11.dtd">
<svg version="1.1" id="Calque_1" xmlns="http://www.w3.org/2000/svg" xmlns:xlink="http://www.w3.org/1999/xlink" x="0px" y="0px"
	 width="116.129px" height="118.28px" viewBox="0 0 116.129 118.28" enable-background="new 0 0 116.129 118.28"
	 xml:space="preserve">
<circle fill="#FFFFFF" cx="57.543" cy="62.589" r="46"/>
<path fill="#4EC4DA" d="M75.145,45.084c-0.521-0.524-1.307-0.677-1.988-0.4L32.863,61.168c-0.753,0.308-1.213,1.076-1.127,1.886
	c0.085,0.81,0.692,1.464,1.493,1.61L52.128,68.1L55.566,87c0.145,0.8,0.801,1.408,1.609,1.494c0.064,0.006,0.129,0.009,0.19,0.009
	c0.737,0,1.412-0.444,1.696-1.138l16.483-40.294C75.824,46.39,75.666,45.607,75.145,45.084z"/>
<line fill="none" stroke="#908F8E" stroke-width="4" stroke-miterlimit="10" x1="31.496" y1="38.237" x2="85.574" y2="86.943"/>
</svg>
