<?xml version="1.0" encoding="utf-8"?>
<!-- Generator: Adobe Illustrator 16.0.0, SVG Export Plug-In . SVG Version: 6.00 Build 0)  -->
<!DOCTYPE svg PUBLIC "-//W3C//DTD SVG 1.1//EN" "http://www.w3.org/Graphics/SVG/1.1/DTD/svg11.dtd">
<svg version="1.1" id="Calque_1" xmlns="http://www.w3.org/2000/svg" xmlns:xlink="http://www.w3.org/1999/xlink" x="0px" y="0px"
	 width="117.204px" height="109.678px" viewBox="0 0 117.204 109.678" enable-background="new 0 0 117.204 109.678"
	 xml:space="preserve">
<circle fill="#FFFFFF" cx="57.542" cy="54.829" r="46"/>
<g>
	<g transform="matrix(1,0,0,1,1,0)">
		<path fill="#919090" d="M84.076,39.989c0.303,0.006,0.605,0.024,0.907,0.061c0.7,0.078,1.39,0.242,2.05,0.483
			c1.217,0.446,2.332,1.159,3.248,2.076c0.941,0.94,1.669,2.094,2.113,3.35c0.22,0.631,0.371,1.283,0.447,1.947
			c0.034,0.302,0.053,0.604,0.058,0.908c0.03,4.671,0.03,9.341,0,14.011c-0.005,0.304-0.023,0.606-0.058,0.908
			c-0.076,0.663-0.228,1.317-0.447,1.946c-0.444,1.258-1.172,2.409-2.113,3.352c-0.916,0.916-2.031,1.63-3.248,2.075
			c-0.66,0.243-1.35,0.405-2.05,0.485c-0.302,0.034-0.604,0.052-0.907,0.059c-19.435,0.123-38.87,0.123-58.303,0
			c-0.305-0.007-0.607-0.024-0.909-0.059c-0.663-0.075-1.316-0.226-1.947-0.448c-1.257-0.442-2.408-1.171-3.351-2.112
			c-0.916-0.918-1.629-2.031-2.075-3.247c-0.242-0.662-0.406-1.352-0.486-2.051c-0.034-0.302-0.052-0.604-0.058-0.908
			c-0.029-4.67-0.029-9.34,0-14.011c0.006-0.304,0.023-0.606,0.058-0.908c0.08-0.7,0.244-1.389,0.486-2.049
			c0.446-1.218,1.159-2.331,2.075-3.248c0.942-0.942,2.094-1.67,3.351-2.113c0.63-0.221,1.284-0.373,1.947-0.446
			c0.302-0.036,0.604-0.055,0.909-0.061C64.055,39.748,48.611,39.767,84.076,39.989z M25.895,44.092
			c-0.569,0.002-1.134,0.096-1.669,0.293c-0.659,0.242-1.262,0.629-1.759,1.124c-0.496,0.497-0.883,1.1-1.125,1.76
			c-0.188,0.513-0.283,1.053-0.292,1.599c-0.029,4.656-0.087,9.314,0.001,13.969c0.016,0.524,0.11,1.044,0.291,1.537
			c0.242,0.658,0.629,1.262,1.125,1.758c0.497,0.497,1.1,0.884,1.759,1.125c0.514,0.189,1.053,0.283,1.599,0.293
			c19.42,0.123,38.844,0.367,58.261-0.001c0.523-0.019,1.043-0.11,1.536-0.292c0.659-0.241,1.263-0.628,1.759-1.125
			c0.496-0.496,0.883-1.1,1.125-1.758c0.188-0.514,0.283-1.055,0.293-1.6c0.029-4.656,0.087-9.313-0.002-13.97
			c-0.016-0.524-0.109-1.043-0.291-1.535c-0.242-0.66-0.629-1.263-1.125-1.76c-0.496-0.495-1.1-0.882-1.759-1.124
			c-0.514-0.188-1.054-0.283-1.599-0.293C48.585,43.867,64.043,44.092,25.895,44.092z"/>
	</g>
	<g transform="matrix(-1.60812e-16,-1,0.833333,-1.3401e-16,33.6667,108)">
		<path fill="#908E8E" d="M58.084,71.296c0-0.816-0.55-1.477-1.229-1.477h-9.351c-0.679,0-1.231,0.661-1.231,1.477v2.953
			c0,0.814,0.553,1.477,1.231,1.477h9.351c0.679,0,1.229-0.662,1.229-1.477V71.296z"/>
	</g>
	<path fill="#4EC4DA" d="M26.66,44.994h46.489v21.653H26.66c-2.046,0-3.708-1.663-3.708-3.709V48.701
		C22.951,46.655,24.613,44.994,26.66,44.994z"/>
	<path fill="#4EC4DA" d="M84.803,66.704l-46.489-0.093l0.044-21.654l46.49,0.095c2.045,0.004,3.704,1.669,3.7,3.715l-0.029,14.238
		C88.515,65.051,86.851,66.708,84.803,66.704z"/>
</g>
</svg>
